<svg width="24" height="24" viewBox="0 0 24 24" fill="none" xmlns="http://www.w3.org/2000/svg">
<path d="M11.5 11C13.433 11 15 9.43299 15 7.5C15 5.567 13.433 4 11.5 4C9.567 4 8 5.567 8 7.5C8 9.43299 9.567 11 11.5 11Z" stroke="black" stroke-width="2" stroke-linejoin="round"/>
<path d="M12 20H5C5 16.3077 8.05488 13.7451 11.5 14C12.3029 14.0594 13.5 14.5 13.5 14.5" stroke="currentColor" stroke-width="2" stroke-linecap="round" stroke-linejoin="round"/>
<path d="M18 18.0016C18 19.1061 17.1046 20.0016 16 20.0016C14.8954 20.0016 14 19.1061 14 18.0016C14 16.897 14.8954 16.0016 16 16.0016C17.1046 16.0016 18 16.897 18 18.0016ZM18 18.0016C18 16.0489 18 14.2013 18 13.6016C18 13.0018 18 13.0018 19 13.0016C19.1406 12.998 19.5 13.0018 19.5 13.0018" stroke="currentColor" stroke-width="2" stroke-linecap="round"/>
</svg>
