<svg width="24" height="24" viewBox="0 0 24 24" fill="none" xmlns="http://www.w3.org/2000/svg">
<path d="M9.5 18.75C9.5 17.7835 8.7165 17 7.75 17C6.7835 17 6 17.7835 6 18.75C6 19.7165 6.7835 20.5 7.75 20.5C8.7165 20.5 9.5 19.7165 9.5 18.75Z" stroke="currentColor" stroke-width="2" stroke-linecap="round" stroke-linejoin="round"/>
<path d="M9.5 11.75C9.5 10.7835 8.7165 10 7.75 10C6.7835 10 6 10.7835 6 11.75C6 12.7165 6.7835 13.5 7.75 13.5C8.7165 13.5 9.5 12.7165 9.5 11.75Z" stroke="currentColor" stroke-width="2" stroke-linecap="round" stroke-linejoin="round"/>
<path d="M9.5 4.75C9.5 3.7835 8.7165 3 7.75 3C6.7835 3 6 3.7835 6 4.75C6 5.7165 6.7835 6.5 7.75 6.5C8.7165 6.5 9.5 5.7165 9.5 4.75Z" stroke="currentColor" stroke-width="2" stroke-linecap="round" stroke-linejoin="round"/>
<path d="M17.25 18.75C17.25 17.7835 16.4665 17 15.5 17C14.5335 17 13.75 17.7835 13.75 18.75C13.75 19.7165 14.5335 20.5 15.5 20.5C16.4665 20.5 17.25 19.7165 17.25 18.75Z" stroke="currentColor" stroke-width="2" stroke-linecap="round" stroke-linejoin="round"/>
<path d="M17.25 11.75C17.25 10.7835 16.4665 10 15.5 10C14.5335 10 13.75 10.7835 13.75 11.75C13.75 12.7165 14.5335 13.5 15.5 13.5C16.4665 13.5 17.25 12.7165 17.25 11.75Z" stroke="currentColor" stroke-width="2" stroke-linecap="round" stroke-linejoin="round"/>
<path d="M17.25 4.75C17.25 3.7835 16.4665 3 15.5 3C14.5335 3 13.75 3.7835 13.75 4.75C13.75 5.7165 14.5335 6.5 15.5 6.5C16.4665 6.5 17.25 5.7165 17.25 4.75Z" stroke="currentColor" stroke-width="2" stroke-linecap="round" stroke-linejoin="round"/>
</svg>
