<svg width="24" height="24" viewBox="0 0 24 24" fill="none" xmlns="http://www.w3.org/2000/svg">
<path d="M6.5 3.75V20.25" stroke="currentColor" stroke-width="2" stroke-linecap="round" stroke-linejoin="round"/>
<path d="M12 3.75V20.25" stroke="currentColor" stroke-width="2" stroke-linecap="round" stroke-linejoin="round"/>
<path d="M17.5 3.75V20.25" stroke="currentColor" stroke-width="2" stroke-linecap="round" stroke-linejoin="round"/>
<path d="M6.5 9.75C7.4665 9.75 8.25 8.9665 8.25 8C8.25 7.0335 7.4665 6.25 6.5 6.25C5.5335 6.25 4.75 7.0335 4.75 8C4.75 8.9665 5.5335 9.75 6.5 9.75Z" stroke="currentColor" stroke-width="2" stroke-linecap="round" stroke-linejoin="round"/>
<path d="M12 16.75C12.9665 16.75 13.75 15.9665 13.75 15C13.75 14.0335 12.9665 13.25 12 13.25C11.0335 13.25 10.25 14.0335 10.25 15C10.25 15.9665 11.0335 16.75 12 16.75Z" stroke="currentColor" stroke-width="2" stroke-linecap="round" stroke-linejoin="round"/>
<path d="M17.5 12.25C18.4665 12.25 19.25 11.4665 19.25 10.5C19.25 9.5335 18.4665 8.75 17.5 8.75C16.5335 8.75 15.75 9.5335 15.75 10.5C15.75 11.4665 16.5335 12.25 17.5 12.25Z" stroke="currentColor" stroke-width="2" stroke-linecap="round" stroke-linejoin="round"/>
</svg>
