<svg width="24" height="24" viewBox="0 0 24 24" fill="none" xmlns="http://www.w3.org/2000/svg">
<path d="M2.62961 8.5L1.69287 8.14996L2.62961 8.5ZM2.62961 15.5L1.69287 15.85L2.62961 15.5ZM2 12H3C3 10.89 3.20049 9.82911 3.56634 8.85004L2.62961 8.5L1.69287 8.14996C1.24461 9.34957 1 10.6474 1 12H2ZM2.62961 8.5L3.56634 8.85004C4.84379 5.43148 8.1392 3 12 3V2V1C7.27775 1 3.2529 3.97518 1.69287 8.14996L2.62961 8.5ZM12 2V3C15.8608 3 19.1562 5.43148 20.4337 8.85004L21.3704 8.5L22.3071 8.14996C20.7471 3.97518 16.7223 1 12 1V2ZM21.3704 8.5L20.4337 8.85004C20.7995 9.82911 21 10.89 21 12H22H23C23 10.6474 22.7554 9.34957 22.3071 8.14996L21.3704 8.5ZM2.62961 8.5V9.5C2.64205 9.5 2.65452 9.5 2.66701 9.5C2.6795 9.5 2.69201 9.5 2.70455 9.5C2.71709 9.5 2.72965 9.5 2.74223 9.5C2.75482 9.5 2.76743 9.5 2.78006 9.5C2.79269 9.5 2.80534 9.5 2.81802 9.5C2.8307 9.5 2.8434 9.5 2.85613 9.5C2.86885 9.5 2.8816 9.5 2.89437 9.5C2.90715 9.5 2.91994 9.5 2.93276 9.5C2.94558 9.5 2.95842 9.5 2.97128 9.5C2.98414 9.5 2.99703 9.5 3.00993 9.5C3.02284 9.5 3.03577 9.5 3.04873 9.5C3.06168 9.5 3.07466 9.5 3.08765 9.5C3.10065 9.5 3.11367 9.5 3.12671 9.5C3.13976 9.5 3.15282 9.5 3.16591 9.5C3.17899 9.5 3.1921 9.5 3.20523 9.5C3.21836 9.5 3.23152 9.5 3.24469 9.5C3.25786 9.5 3.27106 9.5 3.28428 9.5C3.29749 9.5 3.31073 9.5 3.32399 9.5C3.33725 9.5 3.35054 9.5 3.36384 9.5C3.37714 9.5 3.39047 9.5 3.40381 9.5C3.41716 9.5 3.43052 9.5 3.44391 9.5C3.4573 9.5 3.47071 9.5 3.48414 9.5C3.49757 9.5 3.51102 9.5 3.52449 9.5C3.53796 9.5 3.55145 9.5 3.56496 9.5C3.57848 9.5 3.59201 9.5 3.60556 9.5C3.61912 9.5 3.63269 9.5 3.64628 9.5C3.65988 9.5 3.67349 9.5 3.68713 9.5C3.70076 9.5 3.71442 9.5 3.72809 9.5C3.74177 9.5 3.75546 9.5 3.76918 9.5C3.78289 9.5 3.79662 9.5 3.81038 9.5C3.82413 9.5 3.83791 9.5 3.8517 9.5C3.86549 9.5 3.87931 9.5 3.89314 9.5C3.90697 9.5 3.92082 9.5 3.93469 9.5C3.94857 9.5 3.96246 9.5 3.97637 9.5C3.99028 9.5 4.0042 9.5 4.01815 9.5C4.0321 9.5 4.04607 9.5 4.06005 9.5C4.07404 9.5 4.08804 9.5 4.10206 9.5C4.11609 9.5 4.13013 9.5 4.14419 9.5C4.15825 9.5 4.17233 9.5 4.18643 9.5C4.20052 9.5 4.21464 9.5 4.22877 9.5C4.24291 9.5 4.25706 9.5 4.27123 9.5C4.2854 9.5 4.29959 9.5 4.3138 9.5C4.328 9.5 4.34223 9.5 4.35647 9.5C4.37071 9.5 4.38497 9.5 4.39925 9.5C4.41353 9.5 4.42782 9.5 4.44214 9.5C4.45645 9.5 4.47078 9.5 4.48513 9.5C4.49948 9.5 4.51384 9.5 4.52823 9.5C4.54261 9.5 4.55701 9.5 4.57143 9.5C4.58584 9.5 4.60028 9.5 4.61473 9.5C4.62918 9.5 4.64365 9.5 4.65814 9.5C4.67262 9.5 4.68712 9.5 4.70164 9.5C4.71616 9.5 4.7307 9.5 4.74525 9.5C4.7598 9.5 4.77437 9.5 4.78895 9.5C4.80354 9.5 4.81814 9.5 4.83276 9.5C4.84738 9.5 4.86201 9.5 4.87666 9.5C4.89131 9.5 4.90598 9.5 4.92066 9.5C4.93534 9.5 4.95004 9.5 4.96475 9.5C4.97947 9.5 4.9942 9.5 5.00894 9.5C5.02369 9.5 5.03845 9.5 5.05323 9.5C5.068 9.5 5.0828 9.5 5.0976 9.5C5.11241 9.5 5.12724 9.5 5.14207 9.5C5.15691 9.5 5.17177 9.5 5.18663 9.5C5.2015 9.5 5.21639 9.5 5.23129 9.5C5.24619 9.5 5.2611 9.5 5.27603 9.5C5.29096 9.5 5.3059 9.5 5.32086 9.5C5.33582 9.5 5.35079 9.5 5.36578 9.5C5.38077 9.5 5.39577 9.5 5.41078 9.5C5.4258 9.5 5.44083 9.5 5.45588 9.5C5.47092 9.5 5.48598 9.5 5.50106 9.5C5.51613 9.5 5.53122 9.5 5.54632 9.5C5.56142 9.5 5.57654 9.5 5.59166 9.5C5.60679 9.5 5.62194 9.5 5.63709 9.5C5.65225 9.5 5.66742 9.5 5.68261 9.5C5.69779 9.5 5.71299 9.5 5.7282 9.5C5.74341 9.5 5.75864 9.5 5.77387 9.5C5.78911 9.5 5.80436 9.5 5.81963 9.5C5.83489 9.5 5.85017 9.5 5.86546 9.5C5.88075 9.5 5.89605 9.5 5.91137 9.5C5.92668 9.5 5.94201 9.5 5.95735 9.5C5.9727 9.5 5.98805 9.5 6.00342 9.5C6.01878 9.5 6.03416 9.5 6.04955 9.5C6.06495 9.5 6.08035 9.5 6.09577 9.5C6.11118 9.5 6.12661 9.5 6.14205 9.5C6.15749 9.5 6.17295 9.5 6.18841 9.5C6.20388 9.5 6.21935 9.5 6.23484 9.5C6.25033 9.5 6.26583 9.5 6.28134 9.5C6.29685 9.5 6.31238 9.5 6.32791 9.5C6.34345 9.5 6.35899 9.5 6.37455 9.5C6.39011 9.5 6.40568 9.5 6.42126 9.5C6.43684 9.5 6.45243 9.5 6.46804 9.5C6.48364 9.5 6.49926 9.5 6.51488 9.5C6.53051 9.5 6.54614 9.5 6.56179 9.5C6.57744 9.5 6.59309 9.5 6.60876 9.5C6.62443 9.5 6.64011 9.5 6.6558 9.5C6.67149 9.5 6.68719 9.5 6.7029 9.5C6.71861 9.5 6.73433 9.5 6.75006 9.5C6.7658 9.5 6.78154 9.5 6.79729 9.5C6.81304 9.5 6.8288 9.5 6.84457 9.5C6.86034 9.5 6.87613 9.5 6.89192 9.5C6.90771 9.5 6.92351 9.5 6.93932 9.5C6.95513 9.5 6.97095 9.5 6.98678 9.5C7.00261 9.5 7.01845 9.5 7.0343 9.5C7.05015 9.5 7.06601 9.5 7.08188 9.5C7.09775 9.5 7.11362 9.5 7.12951 9.5C7.14539 9.5 7.16129 9.5 7.17719 9.5C7.1931 9.5 7.20901 9.5 7.22493 9.5C7.24085 9.5 7.25678 9.5 7.27272 9.5C7.28866 9.5 7.30461 9.5 7.32057 9.5C7.33652 9.5 7.35249 9.5 7.36846 9.5C7.38444 9.5 7.40042 9.5 7.41641 9.5C7.4324 9.5 7.4484 9.5 7.4644 9.5C7.48041 9.5 7.49642 9.5 7.51244 9.5C7.52847 9.5 7.5445 9.5 7.56054 9.5C7.57657 9.5 7.59262 9.5 7.60867 9.5C7.62473 9.5 7.64079 9.5 7.65686 9.5C7.67293 9.5 7.689 9.5 7.70509 9.5C7.72117 9.5 7.73726 9.5 7.75336 9.5C7.76946 9.5 7.78556 9.5 7.80167 9.5C7.81779 9.5 7.83391 9.5 7.85003 9.5C7.86616 9.5 7.88229 9.5 7.89843 9.5C7.91457 9.5 7.93072 9.5 7.94688 9.5C7.96303 9.5 7.97919 9.5 7.99536 9.5C8.01152 9.5 8.0277 9.5 8.04388 9.5C8.06006 9.5 8.07624 9.5 8.09243 9.5C8.10863 9.5 8.12483 9.5 8.14103 9.5C8.15724 9.5 8.17345 9.5 8.18966 9.5C8.20588 9.5 8.2221 9.5 8.23833 9.5C8.25456 9.5 8.27079 9.5 8.28703 9.5C8.30327 9.5 8.31952 9.5 8.33577 9.5C8.35202 9.5 8.36828 9.5 8.38454 9.5C8.4008 9.5 8.41707 9.5 8.43334 9.5C8.44961 9.5 8.46589 9.5 8.48217 9.5C8.49846 9.5 8.51475 9.5 8.53104 9.5C8.54733 9.5 8.56363 9.5 8.57993 9.5C8.59623 9.5 8.61254 9.5 8.62885 9.5C8.64517 9.5 8.66148 9.5 8.6778 9.5C8.69412 9.5 8.71045 9.5 8.72678 9.5C8.74311 9.5 8.75944 9.5 8.77578 9.5C8.79212 9.5 8.80846 9.5 8.82481 9.5C8.84116 9.5 8.85751 9.5 8.87386 9.5C8.89022 9.5 8.90658 9.5 8.92294 9.5C8.9393 9.5 8.95567 9.5 8.97204 9.5C8.98841 9.5 9.00478 9.5 9.02116 9.5C9.03754 9.5 9.05392 9.5 9.0703 9.5C9.08669 9.5 9.10307 9.5 9.11946 9.5C9.13585 9.5 9.15225 9.5 9.16865 9.5C9.18504 9.5 9.20144 9.5 9.21784 9.5C9.23425 9.5 9.25065 9.5 9.26706 9.5C9.28347 9.5 9.29988 9.5 9.3163 9.5C9.33271 9.5 9.34913 9.5 9.36555 9.5C9.38197 9.5 9.39839 9.5 9.41481 9.5C9.43123 9.5 9.44766 9.5 9.46409 9.5C9.48052 9.5 9.49695 9.5 9.51338 9.5C9.52981 9.5 9.54625 9.5 9.56269 9.5C9.57912 9.5 9.59556 9.5 9.612 9.5C9.62844 9.5 9.64489 9.5 9.66133 9.5C9.67777 9.5 9.69422 9.5 9.71067 9.5C9.72711 9.5 9.74356 9.5 9.76001 9.5C9.77646 9.5 9.79291 9.5 9.80936 9.5C9.82582 9.5 9.84227 9.5 9.85873 9.5C9.87518 9.5 9.89164 9.5 9.90809 9.5C9.92455 9.5 9.94101 9.5 9.95746 9.5C9.97392 9.5 9.99038 9.5 10.0068 9.5C10.0233 9.5 10.0398 9.5 10.0562 9.5C10.0727 9.5 10.0891 9.5 10.1056 9.5C10.1221 9.5 10.1385 9.5 10.155 9.5C10.1715 9.5 10.1879 9.5 10.2044 9.5C10.2208 9.5 10.2373 9.5 10.2538 9.5C10.2702 9.5 10.2867 9.5 10.3032 9.5C10.3196 9.5 10.3361 9.5 10.3525 9.5C10.369 9.5 10.3855 9.5 10.4019 9.5C10.4184 9.5 10.4348 9.5 10.4513 9.5C10.4678 9.5 10.4842 9.5 10.5007 9.5C10.5171 9.5 10.5336 9.5 10.5501 9.5C10.5665 9.5 10.583 9.5 10.5994 9.5C10.6159 9.5 10.6323 9.5 10.6488 9.5C10.6652 9.5 10.6817 9.5 10.6981 9.5C10.7146 9.5 10.731 9.5 10.7475 9.5C10.7639 9.5 10.7804 9.5 10.7968 9.5C10.8132 9.5 10.8297 9.5 10.8461 9.5C10.8626 9.5 10.879 9.5 10.8954 9.5C10.9119 9.5 10.9283 9.5 10.9447 9.5C10.9612 9.5 10.9776 9.5 10.994 9.5C11.0105 9.5 11.0269 9.5 11.0433 9.5C11.0597 9.5 11.0762 9.5 11.0926 9.5C11.109 9.5 11.1254 9.5 11.1418 9.5C11.1582 9.5 11.1746 9.5 11.191 9.5C11.2075 9.5 11.2239 9.5 11.2403 9.5C11.2567 9.5 11.2731 9.5 11.2895 9.5C11.3059 9.5 11.3222 9.5 11.3386 9.5C11.355 9.5 11.3714 9.5 11.3878 9.5C11.4042 9.5 11.4206 9.5 11.4369 9.5C11.4533 9.5 11.4697 9.5 11.486 9.5C11.5024 9.5 11.5188 9.5 11.5351 9.5C11.5515 9.5 11.5679 9.5 11.5842 9.5C11.6006 9.5 11.6169 9.5 11.6333 9.5C11.6496 9.5 11.6659 9.5 11.6823 9.5C11.6986 9.5 11.7149 9.5 11.7313 9.5C11.7476 9.5 11.7639 9.5 11.7802 9.5C11.7966 9.5 11.8129 9.5 11.8292 9.5C11.8455 9.5 11.8618 9.5 11.8781 9.5C11.8944 9.5 11.9107 9.5 11.927 9.5C11.9433 9.5 11.9596 9.5 11.9758 9.5C11.9921 9.5 12.0084 9.5 12.0247 9.5C12.0409 9.5 12.0572 9.5 12.0735 9.5C12.0897 9.5 12.106 9.5 12.1222 9.5C12.1385 9.5 12.1547 9.5 12.171 9.5C12.1872 9.5 12.2034 9.5 12.2197 9.5C12.2359 9.5 12.2521 9.5 12.2683 9.5C12.2845 9.5 12.3007 9.5 12.3169 9.5C12.3331 9.5 12.3493 9.5 12.3655 9.5C12.3817 9.5 12.3979 9.5 12.4141 9.5C12.4303 9.5 12.4464 9.5 12.4626 9.5C12.4787 9.5 12.4949 9.5 12.5111 9.5C12.5272 9.5 12.5434 9.5 12.5595 9.5C12.5756 9.5 12.5918 9.5 12.6079 9.5C12.624 9.5 12.6401 9.5 12.6562 9.5C12.6723 9.5 12.6884 9.5 12.7045 9.5C12.7206 9.5 12.7367 9.5 12.7528 9.5C12.7689 9.5 12.785 9.5 12.801 9.5C12.8171 9.5 12.8331 9.5 12.8492 9.5C12.8652 9.5 12.8813 9.5 12.8973 9.5C12.9134 9.5 12.9294 9.5 12.9454 9.5C12.9614 9.5 12.9774 9.5 12.9934 9.5C13.0094 9.5 13.0254 9.5 13.0414 9.5C13.0574 9.5 13.0734 9.5 13.0893 9.5C13.1053 9.5 13.1213 9.5 13.1372 9.5C13.1532 9.5 13.1691 9.5 13.1851 9.5C13.201 9.5 13.2169 9.5 13.2328 9.5C13.2488 9.5 13.2647 9.5 13.2806 9.5C13.2965 9.5 13.3124 9.5 13.3282 9.5C13.3441 9.5 13.36 9.5 13.3759 9.5C13.3917 9.5 13.4076 9.5 13.4234 9.5C13.4393 9.5 13.4551 9.5 13.4709 9.5C13.4867 9.5 13.5026 9.5 13.5184 9.5C13.5342 9.5 13.55 9.5 13.5658 9.5C13.5815 9.5 13.5973 9.5 13.6131 9.5C13.6289 9.5 13.6446 9.5 13.6604 9.5C13.6761 9.5 13.6918 9.5 13.7076 9.5C13.7233 9.5 13.739 9.5 13.7547 9.5C13.7704 9.5 13.7861 9.5 13.8018 9.5C13.8175 9.5 13.8332 9.5 13.8488 9.5C13.8645 9.5 13.8801 9.5 13.8958 9.5C13.9114 9.5 13.9271 9.5 13.9427 9.5C13.9583 9.5 13.9739 9.5 13.9895 9.5C14.0051 9.5 14.0207 9.5 14.0363 9.5C14.0518 9.5 14.0674 9.5 14.083 9.5C14.0985 9.5 14.1141 9.5 14.1296 9.5C14.1451 9.5 14.1606 9.5 14.1761 9.5C14.1917 9.5 14.2071 9.5 14.2226 9.5C14.2381 9.5 14.2536 9.5 14.269 9.5C14.2845 9.5 14.2999 9.5 14.3154 9.5C14.3308 9.5 14.3462 9.5 14.3617 9.5C14.3771 9.5 14.3925 9.5 14.4078 9.5C14.4232 9.5 14.4386 9.5 14.454 9.5C14.4693 9.5 14.4847 9.5 14.5 9.5C14.5154 9.5 14.5307 9.5 14.546 9.5C14.5613 9.5 14.5766 9.5 14.5919 9.5C14.6072 9.5 14.6224 9.5 14.6377 9.5C14.6529 9.5 14.6682 9.5 14.6834 9.5C14.6987 9.5 14.7139 9.5 14.7291 9.5C14.7443 9.5 14.7595 9.5 14.7747 9.5C14.7898 9.5 14.805 9.5 14.8201 9.5C14.8353 9.5 14.8504 9.5 14.8656 9.5C14.8807 9.5 14.8958 9.5 14.9109 9.5C14.926 9.5 14.9411 9.5 14.9561 9.5C14.9712 9.5 14.9862 9.5 15.0013 9.5C15.0163 9.5 15.0313 9.5 15.0464 9.5C15.0614 9.5 15.0764 9.5 15.0913 9.5C15.1063 9.5 15.1213 9.5 15.1362 9.5C15.1512 9.5 15.1661 9.5 15.1811 9.5C15.196 9.5 15.2109 9.5 15.2258 9.5C15.2407 9.5 15.2555 9.5 15.2704 9.5C15.2853 9.5 15.3001 9.5 15.3149 9.5C15.3298 9.5 15.3446 9.5 15.3594 9.5C15.3742 9.5 15.389 9.5 15.4037 9.5C15.4185 9.5 15.4333 9.5 15.448 9.5C15.4627 9.5 15.4775 9.5 15.4922 9.5C15.5069 9.5 15.5216 9.5 15.5363 9.5C15.5509 9.5 15.5656 9.5 15.5802 9.5C15.5949 9.5 15.6095 9.5 15.6241 9.5C15.6387 9.5 15.6533 9.5 15.6679 9.5C15.6825 9.5 15.697 9.5 15.7116 9.5C15.7261 9.5 15.7406 9.5 15.7552 9.5C15.7697 9.5 15.7842 9.5 15.7986 9.5C15.8131 9.5 15.8276 9.5 15.842 9.5C15.8565 9.5 15.8709 9.5 15.8853 9.5C15.8997 9.5 15.9141 9.5 15.9285 9.5C15.9429 9.5 15.9572 9.5 15.9715 9.5C15.9859 9.5 16.0002 9.5 16.0145 9.5C16.0288 9.5 16.0431 9.5 16.0574 9.5C16.0716 9.5 16.0859 9.5 16.1001 9.5C16.1144 9.5 16.1286 9.5 16.1428 9.5C16.157 9.5 16.1712 9.5 16.1853 9.5C16.1995 9.5 16.2136 9.5 16.2278 9.5C16.2419 9.5 16.256 9.5 16.2701 9.5C16.2842 9.5 16.2982 9.5 16.3123 9.5C16.3263 9.5 16.3404 9.5 16.3544 9.5C16.3684 9.5 16.3824 9.5 16.3964 9.5C16.4104 9.5 16.4243 9.5 16.4382 9.5C16.4522 9.5 16.4661 9.5 16.48 9.5C16.4939 9.5 16.5078 9.5 16.5217 9.5C16.5355 9.5 16.5494 9.5 16.5632 9.5C16.577 9.5 16.5908 9.5 16.6046 9.5C16.6184 9.5 16.6321 9.5 16.6459 9.5C16.6596 9.5 16.6734 9.5 16.6871 9.5C16.7008 9.5 16.7145 9.5 16.7281 9.5C16.7418 9.5 16.7554 9.5 16.7691 9.5C16.7827 9.5 16.7963 9.5 16.8099 9.5C16.8235 9.5 16.837 9.5 16.8506 9.5C16.8641 9.5 16.8776 9.5 16.8911 9.5C16.9046 9.5 16.9181 9.5 16.9316 9.5C16.945 9.5 16.9585 9.5 16.9719 9.5C16.9853 9.5 16.9987 9.5 17.0121 9.5C17.0255 9.5 17.0388 9.5 17.0522 9.5C17.0655 9.5 17.0788 9.5 17.0921 9.5C17.1054 9.5 17.1187 9.5 17.1319 9.5C17.1452 9.5 17.1584 9.5 17.1716 9.5C17.1848 9.5 17.198 9.5 17.2112 9.5C17.2243 9.5 17.2375 9.5 17.2506 9.5C17.2637 9.5 17.2768 9.5 17.2899 9.5C17.303 9.5 17.316 9.5 17.3291 9.5C17.3421 9.5 17.3551 9.5 17.3681 9.5C17.3811 9.5 17.394 9.5 17.407 9.5C17.4199 9.5 17.4328 9.5 17.4457 9.5C17.4586 9.5 17.4715 9.5 17.4844 9.5C17.4972 9.5 17.5101 9.5 17.5229 9.5C17.5357 9.5 17.5484 9.5 17.5612 9.5C17.574 9.5 17.5867 9.5 17.5994 9.5C17.6121 9.5 17.6248 9.5 17.6375 9.5C17.6502 9.5 17.6628 9.5 17.6754 9.5C17.6881 9.5 17.7006 9.5 17.7132 9.5C17.7258 9.5 17.7383 9.5 17.7509 9.5C17.7634 9.5 17.7759 9.5 17.7884 9.5C17.8009 9.5 17.8133 9.5 17.8257 9.5C17.8382 9.5 17.8506 9.5 17.863 9.5C17.8754 9.5 17.8877 9.5 17.9 9.5C17.9124 9.5 17.9247 9.5 17.937 9.5C17.9493 9.5 17.9615 9.5 17.9738 9.5C17.986 9.5 17.9982 9.5 18.0104 9.5C18.0226 9.5 18.0347 9.5 18.0469 9.5C18.059 9.5 18.0711 9.5 18.0832 9.5C18.0953 9.5 18.1074 9.5 18.1194 9.5C18.1314 9.5 18.1435 9.5 18.1554 9.5C18.1674 9.5 18.1794 9.5 18.1913 9.5C18.2033 9.5 18.2152 9.5 18.2271 9.5C18.2389 9.5 18.2508 9.5 18.2626 9.5C18.2745 9.5 18.2863 9.5 18.298 9.5C18.3098 9.5 18.3216 9.5 18.3333 9.5C18.345 9.5 18.3567 9.5 18.3684 9.5C18.3801 9.5 18.3918 9.5 18.4034 9.5C18.415 9.5 18.4266 9.5 18.4382 9.5C18.4497 9.5 18.4613 9.5 18.4728 9.5C18.4843 9.5 18.4958 9.5 18.5073 9.5C18.5188 9.5 18.5302 9.5 18.5416 9.5C18.553 9.5 18.5644 9.5 18.5758 9.5C18.5871 9.5 18.5984 9.5 18.6097 9.5C18.621 9.5 18.6323 9.5 18.6436 9.5C18.6548 9.5 18.666 9.5 18.6772 9.5C18.6884 9.5 18.6996 9.5 18.7107 9.5C18.7219 9.5 18.733 9.5 18.7441 9.5C18.7552 9.5 18.7662 9.5 18.7772 9.5C18.7883 9.5 18.7993 9.5 18.8102 9.5C18.8212 9.5 18.8322 9.5 18.8431 9.5C18.854 9.5 18.8649 9.5 18.8757 9.5C18.8866 9.5 18.8974 9.5 18.9082 9.5C18.919 9.5 18.9298 9.5 18.9405 9.5C18.9513 9.5 18.962 9.5 18.9727 9.5C18.9834 9.5 18.994 9.5 19.0047 9.5C19.0153 9.5 19.0259 9.5 19.0365 9.5C19.047 9.5 19.0576 9.5 19.0681 9.5C19.0786 9.5 19.0891 9.5 19.0995 9.5C19.11 9.5 19.1204 9.5 19.1308 9.5C19.1412 9.5 19.1516 9.5 19.1619 9.5C19.1723 9.5 19.1826 9.5 19.1928 9.5C19.2031 9.5 19.2134 9.5 19.2236 9.5C19.2338 9.5 19.244 9.5 19.2541 9.5C19.2643 9.5 19.2744 9.5 19.2845 9.5C19.2946 9.5 19.3047 9.5 19.3147 9.5C19.3248 9.5 19.3348 9.5 19.3448 9.5C19.3547 9.5 19.3647 9.5 19.3746 9.5C19.3845 9.5 19.3944 9.5 19.4042 9.5C19.4141 9.5 19.4239 9.5 19.4337 9.5C19.4435 9.5 19.4533 9.5 19.463 9.5C19.4727 9.5 19.4824 9.5 19.4921 9.5C19.5018 9.5 19.5114 9.5 19.521 9.5C19.5306 9.5 19.5402 9.5 19.5497 9.5C19.5593 9.5 19.5688 9.5 19.5782 9.5C19.5877 9.5 19.5972 9.5 19.6066 9.5C19.616 9.5 19.6254 9.5 19.6347 9.5C19.6441 9.5 19.6534 9.5 19.6627 9.5C19.672 9.5 19.6812 9.5 19.6905 9.5C19.6997 9.5 19.7089 9.5 19.718 9.5C19.7272 9.5 19.7363 9.5 19.7454 9.5C19.7545 9.5 19.7636 9.5 19.7726 9.5C19.7816 9.5 19.7906 9.5 19.7996 9.5C19.8085 9.5 19.8175 9.5 19.8264 9.5C19.8353 9.5 19.8441 9.5 19.853 9.5C19.8618 9.5 19.8706 9.5 19.8793 9.5C19.8881 9.5 19.8968 9.5 19.9055 9.5C19.9142 9.5 19.9229 9.5 19.9315 9.5C19.9402 9.5 19.9488 9.5 19.9573 9.5C19.9659 9.5 19.9744 9.5 19.9829 9.5C19.9914 9.5 19.9999 9.5 20.0083 9.5C20.0167 9.5 20.0251 9.5 20.0335 9.5C20.0419 9.5 20.0502 9.5 20.0585 9.5C20.0668 9.5 20.075 9.5 20.0832 9.5C20.0915 9.5 20.0997 9.5 20.1078 9.5C20.116 9.5 20.1241 9.5 20.1322 9.5C20.1403 9.5 20.1483 9.5 20.1563 9.5C20.1643 9.5 20.1723 9.5 20.1803 9.5C20.1882 9.5 20.1961 9.5 20.204 9.5C20.2119 9.5 20.2197 9.5 20.2275 9.5C20.2353 9.5 20.2431 9.5 20.2508 9.5C20.2586 9.5 20.2663 9.5 20.2739 9.5C20.2816 9.5 20.2892 9.5 20.2968 9.5C20.3044 9.5 20.312 9.5 20.3195 9.5C20.327 9.5 20.3345 9.5 20.342 9.5C20.3494 9.5 20.3568 9.5 20.3642 9.5C20.3716 9.5 20.3789 9.5 20.3862 9.5C20.3935 9.5 20.4008 9.5 20.408 9.5C20.4153 9.5 20.4225 9.5 20.4296 9.5C20.4368 9.5 20.4439 9.5 20.451 9.5C20.4581 9.5 20.4651 9.5 20.4721 9.5C20.4792 9.5 20.4861 9.5 20.4931 9.5C20.5 9.5 20.5069 9.5 20.5138 9.5C20.5206 9.5 20.5275 9.5 20.5343 9.5C20.5411 9.5 20.5478 9.5 20.5545 9.5C20.5612 9.5 20.5679 9.5 20.5746 9.5C20.5812 9.5 20.5878 9.5 20.5944 9.5C20.6009 9.5 20.6075 9.5 20.614 9.5C20.6204 9.5 20.6269 9.5 20.6333 9.5C20.6397 9.5 20.6461 9.5 20.6524 9.5C20.6588 9.5 20.6651 9.5 20.6714 9.5C20.6776 9.5 20.6838 9.5 20.69 9.5C20.6962 9.5 20.7024 9.5 20.7085 9.5C20.7146 9.5 20.7206 9.5 20.7267 9.5C20.7327 9.5 20.7387 9.5 20.7447 9.5C20.7506 9.5 20.7565 9.5 20.7624 9.5C20.7683 9.5 20.7741 9.5 20.7799 9.5C20.7857 9.5 20.7915 9.5 20.7972 9.5C20.8029 9.5 20.8086 9.5 20.8142 9.5C20.8199 9.5 20.8255 9.5 20.831 9.5C20.8366 9.5 20.8421 9.5 20.8476 9.5C20.8531 9.5 20.8585 9.5 20.8639 9.5C20.8693 9.5 20.8747 9.5 20.88 9.5C20.8853 9.5 20.8906 9.5 20.8959 9.5C20.9011 9.5 20.9063 9.5 20.9115 9.5C20.9166 9.5 20.9218 9.5 20.9269 9.5C20.9319 9.5 20.937 9.5 20.942 9.5C20.947 9.5 20.9519 9.5 20.9569 9.5C20.9618 9.5 20.9667 9.5 20.9715 9.5C20.9763 9.5 20.9811 9.5 20.9859 9.5C20.9907 9.5 20.9954 9.5 21 9.5C21.0047 9.5 21.0093 9.5 21.0139 9.5C21.0185 9.5 21.0231 9.5 21.0276 9.5C21.0321 9.5 21.0366 9.5 21.041 9.5C21.0454 9.5 21.0498 9.5 21.0542 9.5C21.0585 9.5 21.0628 9.5 21.0671 9.5C21.0713 9.5 21.0755 9.5 21.0797 9.5C21.0839 9.5 21.088 9.5 21.0921 9.5C21.0962 9.5 21.1003 9.5 21.1043 9.5C21.1083 9.5 21.1122 9.5 21.1162 9.5C21.1201 9.5 21.124 9.5 21.1278 9.5C21.1316 9.5 21.1354 9.5 21.1392 9.5C21.1429 9.5 21.1466 9.5 21.1503 9.5C21.154 9.5 21.1576 9.5 21.1612 9.5C21.1648 9.5 21.1683 9.5 21.1718 9.5C21.1753 9.5 21.1787 9.5 21.1822 9.5C21.1856 9.5 21.1889 9.5 21.1923 9.5C21.1956 9.5 21.1989 9.5 21.2021 9.5C21.2053 9.5 21.2085 9.5 21.2117 9.5C21.2148 9.5 21.2179 9.5 21.221 9.5C21.224 9.5 21.2271 9.5 21.23 9.5C21.233 9.5 21.2359 9.5 21.2388 9.5C21.2417 9.5 21.2445 9.5 21.2473 9.5C21.2501 9.5 21.2529 9.5 21.2556 9.5C21.2583 9.5 21.261 9.5 21.2636 9.5C21.2662 9.5 21.2688 9.5 21.2713 9.5C21.2738 9.5 21.2763 9.5 21.2787 9.5C21.2812 9.5 21.2836 9.5 21.2859 9.5C21.2883 9.5 21.2906 9.5 21.2928 9.5C21.2951 9.5 21.2973 9.5 21.2995 9.5C21.3016 9.5 21.3038 9.5 21.3058 9.5C21.3079 9.5 21.31 9.5 21.3119 9.5C21.3139 9.5 21.3159 9.5 21.3178 9.5C21.3197 9.5 21.3215 9.5 21.3233 9.5C21.3251 9.5 21.3269 9.5 21.3286 9.5C21.3303 9.5 21.332 9.5 21.3336 9.5C21.3352 9.5 21.3368 9.5 21.3383 9.5C21.3398 9.5 21.3413 9.5 21.3428 9.5C21.3442 9.5 21.3456 9.5 21.3469 9.5C21.3483 9.5 21.3496 9.5 21.3508 9.5C21.3521 9.5 21.3533 9.5 21.3544 9.5C21.3556 9.5 21.3567 9.5 21.3577 9.5C21.3588 9.5 21.3598 9.5 21.3608 9.5C21.3617 9.5 21.3627 9.5 21.3635 9.5C21.3644 9.5 21.3652 9.5 21.366 9.5C21.3668 9.5 21.3675 9.5 21.3682 9.5C21.3689 9.5 21.3695 9.5 21.3701 9.5C21.3707 9.5 21.3712 9.5 21.3717 9.5C21.3722 9.5 21.3727 9.5 21.3731 9.5C21.3735 9.5 21.3738 9.5 21.3741 9.5C21.3744 9.5 21.3747 9.5 21.3749 9.5C21.3751 9.5 21.3752 9.5 21.3753 9.5C21.3754 9.5 21.3755 9.5 21.3755 9.5C21.3755 8.5 21.3755 7.5 21.3754 7.5C21.3753 7.5 21.3752 7.5 21.375 7.5C21.3748 7.5 21.3746 7.5 21.3743 7.5C21.374 7.5 21.3737 7.5 21.3733 7.5C21.3729 7.5 21.3725 7.5 21.372 7.5C21.3715 7.5 21.371 7.5 21.3704 7.5V8.5V9.5C21.371 9.5 21.3715 9.5 21.372 9.5C21.3725 9.5 21.3729 9.5 21.3733 9.5C21.3737 9.5 21.374 9.5 21.3743 9.5C21.3746 9.5 21.3748 9.5 21.375 9.5C21.3752 9.5 21.3753 9.5 21.3754 9.5C21.3755 9.5 21.3755 8.5 21.3755 7.5C21.3755 7.5 21.3754 7.5 21.3753 7.5C21.3752 7.5 21.3751 7.5 21.3749 7.5C21.3747 7.5 21.3744 7.5 21.3741 7.5C21.3738 7.5 21.3735 7.5 21.3731 7.5C21.3727 7.5 21.3722 7.5 21.3717 7.5C21.3712 7.5 21.3707 7.5 21.3701 7.5C21.3695 7.5 21.3689 7.5 21.3682 7.5C21.3675 7.5 21.3668 7.5 21.366 7.5C21.3652 7.5 21.3644 7.5 21.3635 7.5C21.3627 7.5 21.3617 7.5 21.3608 7.5C21.3598 7.5 21.3588 7.5 21.3577 7.5C21.3567 7.5 21.3556 7.5 21.3544 7.5C21.3533 7.5 21.3521 7.5 21.3508 7.5C21.3496 7.5 21.3483 7.5 21.3469 7.5C21.3456 7.5 21.3442 7.5 21.3428 7.5C21.3413 7.5 21.3398 7.5 21.3383 7.5C21.3368 7.5 21.3352 7.5 21.3336 7.5C21.332 7.5 21.3303 7.5 21.3286 7.5C21.3269 7.5 21.3251 7.5 21.3233 7.5C21.3215 7.5 21.3197 7.5 21.3178 7.5C21.3159 7.5 21.3139 7.5 21.3119 7.5C21.31 7.5 21.3079 7.5 21.3058 7.5C21.3038 7.5 21.3016 7.5 21.2995 7.5C21.2973 7.5 21.2951 7.5 21.2928 7.5C21.2906 7.5 21.2883 7.5 21.2859 7.5C21.2836 7.5 21.2812 7.5 21.2787 7.5C21.2763 7.5 21.2738 7.5 21.2713 7.5C21.2688 7.5 21.2662 7.5 21.2636 7.5C21.261 7.5 21.2583 7.5 21.2556 7.5C21.2529 7.5 21.2501 7.5 21.2473 7.5C21.2445 7.5 21.2417 7.5 21.2388 7.5C21.2359 7.5 21.233 7.5 21.23 7.5C21.2271 7.5 21.224 7.5 21.221 7.5C21.2179 7.5 21.2148 7.5 21.2117 7.5C21.2085 7.5 21.2053 7.5 21.2021 7.5C21.1989 7.5 21.1956 7.5 21.1923 7.5C21.1889 7.5 21.1856 7.5 21.1822 7.5C21.1787 7.5 21.1753 7.5 21.1718 7.5C21.1683 7.5 21.1648 7.5 21.1612 7.5C21.1576 7.5 21.154 7.5 21.1503 7.5C21.1466 7.5 21.1429 7.5 21.1392 7.5C21.1354 7.5 21.1316 7.5 21.1278 7.5C21.124 7.5 21.1201 7.5 21.1162 7.5C21.1122 7.5 21.1083 7.5 21.1043 7.5C21.1003 7.5 21.0962 7.5 21.0921 7.5C21.088 7.5 21.0839 7.5 21.0797 7.5C21.0755 7.5 21.0713 7.5 21.0671 7.5C21.0628 7.5 21.0585 7.5 21.0542 7.5C21.0498 7.5 21.0454 7.5 21.041 7.5C21.0366 7.5 21.0321 7.5 21.0276 7.5C21.0231 7.5 21.0185 7.5 21.0139 7.5C21.0093 7.5 21.0047 7.5 21 7.5C20.9954 7.5 20.9907 7.5 20.9859 7.5C20.9811 7.5 20.9763 7.5 20.9715 7.5C20.9667 7.5 20.9618 7.5 20.9569 7.5C20.9519 7.5 20.947 7.5 20.942 7.5C20.937 7.5 20.9319 7.5 20.9269 7.5C20.9218 7.5 20.9166 7.5 20.9115 7.5C20.9063 7.5 20.9011 7.5 20.8959 7.5C20.8906 7.5 20.8853 7.5 20.88 7.5C20.8747 7.5 20.8693 7.5 20.8639 7.5C20.8585 7.5 20.8531 7.5 20.8476 7.5C20.8421 7.5 20.8366 7.5 20.831 7.5C20.8255 7.5 20.8199 7.5 20.8142 7.5C20.8086 7.5 20.8029 7.5 20.7972 7.5C20.7915 7.5 20.7857 7.5 20.7799 7.5C20.7741 7.5 20.7683 7.5 20.7624 7.5C20.7565 7.5 20.7506 7.5 20.7447 7.5C20.7387 7.5 20.7327 7.5 20.7267 7.5C20.7206 7.5 20.7146 7.5 20.7085 7.5C20.7024 7.5 20.6962 7.5 20.69 7.5C20.6838 7.5 20.6776 7.5 20.6714 7.5C20.6651 7.5 20.6588 7.5 20.6524 7.5C20.6461 7.5 20.6397 7.5 20.6333 7.5C20.6269 7.5 20.6204 7.5 20.614 7.5C20.6075 7.5 20.6009 7.5 20.5944 7.5C20.5878 7.5 20.5812 7.5 20.5746 7.5C20.5679 7.5 20.5612 7.5 20.5545 7.5C20.5478 7.5 20.5411 7.5 20.5343 7.5C20.5275 7.5 20.5206 7.5 20.5138 7.5C20.5069 7.5 20.5 7.5 20.4931 7.5C20.4861 7.5 20.4792 7.5 20.4721 7.5C20.4651 7.5 20.4581 7.5 20.451 7.5C20.4439 7.5 20.4368 7.5 20.4296 7.5C20.4225 7.5 20.4153 7.5 20.408 7.5C20.4008 7.5 20.3935 7.5 20.3862 7.5C20.3789 7.5 20.3716 7.5 20.3642 7.5C20.3568 7.5 20.3494 7.5 20.342 7.5C20.3345 7.5 20.327 7.5 20.3195 7.5C20.312 7.5 20.3044 7.5 20.2968 7.5C20.2892 7.5 20.2816 7.5 20.2739 7.5C20.2663 7.5 20.2586 7.5 20.2508 7.5C20.2431 7.5 20.2353 7.5 20.2275 7.5C20.2197 7.5 20.2119 7.5 20.204 7.5C20.1961 7.5 20.1882 7.5 20.1803 7.5C20.1723 7.5 20.1643 7.5 20.1563 7.5C20.1483 7.5 20.1403 7.5 20.1322 7.5C20.1241 7.5 20.116 7.5 20.1078 7.5C20.0997 7.5 20.0915 7.5 20.0832 7.5C20.075 7.5 20.0668 7.5 20.0585 7.5C20.0502 7.5 20.0419 7.5 20.0335 7.5C20.0251 7.5 20.0167 7.5 20.0083 7.5C19.9999 7.5 19.9914 7.5 19.9829 7.5C19.9744 7.5 19.9659 7.5 19.9573 7.5C19.9488 7.5 19.9402 7.5 19.9315 7.5C19.9229 7.5 19.9142 7.5 19.9055 7.5C19.8968 7.5 19.8881 7.5 19.8793 7.5C19.8706 7.5 19.8618 7.5 19.853 7.5C19.8441 7.5 19.8353 7.5 19.8264 7.5C19.8175 7.5 19.8085 7.5 19.7996 7.5C19.7906 7.5 19.7816 7.5 19.7726 7.5C19.7636 7.5 19.7545 7.5 19.7454 7.5C19.7363 7.5 19.7272 7.5 19.718 7.5C19.7089 7.5 19.6997 7.5 19.6905 7.5C19.6812 7.5 19.672 7.5 19.6627 7.5C19.6534 7.5 19.6441 7.5 19.6347 7.5C19.6254 7.5 19.616 7.5 19.6066 7.5C19.5972 7.5 19.5877 7.5 19.5782 7.5C19.5688 7.5 19.5593 7.5 19.5497 7.5C19.5402 7.5 19.5306 7.5 19.521 7.5C19.5114 7.5 19.5018 7.5 19.4921 7.5C19.4824 7.5 19.4727 7.5 19.463 7.5C19.4533 7.5 19.4435 7.5 19.4337 7.5C19.4239 7.5 19.4141 7.5 19.4042 7.5C19.3944 7.5 19.3845 7.5 19.3746 7.5C19.3647 7.5 19.3547 7.5 19.3448 7.5C19.3348 7.5 19.3248 7.5 19.3147 7.5C19.3047 7.5 19.2946 7.5 19.2845 7.5C19.2744 7.5 19.2643 7.5 19.2541 7.5C19.244 7.5 19.2338 7.5 19.2236 7.5C19.2134 7.5 19.2031 7.5 19.1928 7.5C19.1826 7.5 19.1723 7.5 19.1619 7.5C19.1516 7.5 19.1412 7.5 19.1308 7.5C19.1204 7.5 19.11 7.5 19.0995 7.5C19.0891 7.5 19.0786 7.5 19.0681 7.5C19.0576 7.5 19.047 7.5 19.0365 7.5C19.0259 7.5 19.0153 7.5 19.0047 7.5C18.994 7.5 18.9834 7.5 18.9727 7.5C18.962 7.5 18.9513 7.5 18.9405 7.5C18.9298 7.5 18.919 7.5 18.9082 7.5C18.8974 7.5 18.8866 7.5 18.8757 7.5C18.8649 7.5 18.854 7.5 18.8431 7.5C18.8322 7.5 18.8212 7.5 18.8102 7.5C18.7993 7.5 18.7883 7.5 18.7772 7.5C18.7662 7.5 18.7552 7.5 18.7441 7.5C18.733 7.5 18.7219 7.5 18.7107 7.5C18.6996 7.5 18.6884 7.5 18.6772 7.5C18.666 7.5 18.6548 7.5 18.6436 7.5C18.6323 7.5 18.621 7.5 18.6097 7.5C18.5984 7.5 18.5871 7.5 18.5758 7.5C18.5644 7.5 18.553 7.5 18.5416 7.5C18.5302 7.5 18.5188 7.5 18.5073 7.5C18.4958 7.5 18.4843 7.5 18.4728 7.5C18.4613 7.5 18.4497 7.5 18.4382 7.5C18.4266 7.5 18.415 7.5 18.4034 7.5C18.3918 7.5 18.3801 7.5 18.3684 7.5C18.3567 7.5 18.345 7.5 18.3333 7.5C18.3216 7.5 18.3098 7.5 18.298 7.5C18.2863 7.5 18.2745 7.5 18.2626 7.5C18.2508 7.5 18.2389 7.5 18.2271 7.5C18.2152 7.5 18.2033 7.5 18.1913 7.5C18.1794 7.5 18.1674 7.5 18.1554 7.5C18.1435 7.5 18.1314 7.5 18.1194 7.5C18.1074 7.5 18.0953 7.5 18.0832 7.5C18.0711 7.5 18.059 7.5 18.0469 7.5C18.0347 7.5 18.0226 7.5 18.0104 7.5C17.9982 7.5 17.986 7.5 17.9738 7.5C17.9615 7.5 17.9493 7.5 17.937 7.5C17.9247 7.5 17.9124 7.5 17.9 7.5C17.8877 7.5 17.8754 7.5 17.863 7.5C17.8506 7.5 17.8382 7.5 17.8257 7.5C17.8133 7.5 17.8009 7.5 17.7884 7.5C17.7759 7.5 17.7634 7.5 17.7509 7.5C17.7383 7.5 17.7258 7.5 17.7132 7.5C17.7006 7.5 17.6881 7.5 17.6754 7.5C17.6628 7.5 17.6502 7.5 17.6375 7.5C17.6248 7.5 17.6121 7.5 17.5994 7.5C17.5867 7.5 17.574 7.5 17.5612 7.5C17.5484 7.5 17.5357 7.5 17.5229 7.5C17.5101 7.5 17.4972 7.5 17.4844 7.5C17.4715 7.5 17.4586 7.5 17.4457 7.5C17.4328 7.5 17.4199 7.5 17.407 7.5C17.394 7.5 17.3811 7.5 17.3681 7.5C17.3551 7.5 17.3421 7.5 17.3291 7.5C17.316 7.5 17.303 7.5 17.2899 7.5C17.2768 7.5 17.2637 7.5 17.2506 7.5C17.2375 7.5 17.2243 7.5 17.2112 7.5C17.198 7.5 17.1848 7.5 17.1716 7.5C17.1584 7.5 17.1452 7.5 17.1319 7.5C17.1187 7.5 17.1054 7.5 17.0921 7.5C17.0788 7.5 17.0655 7.5 17.0522 7.5C17.0388 7.5 17.0255 7.5 17.0121 7.5C16.9987 7.5 16.9853 7.5 16.9719 7.5C16.9585 7.5 16.945 7.5 16.9316 7.5C16.9181 7.5 16.9046 7.5 16.8911 7.5C16.8776 7.5 16.8641 7.5 16.8506 7.5C16.837 7.5 16.8235 7.5 16.8099 7.5C16.7963 7.5 16.7827 7.5 16.7691 7.5C16.7554 7.5 16.7418 7.5 16.7281 7.5C16.7145 7.5 16.7008 7.5 16.6871 7.5C16.6734 7.5 16.6596 7.5 16.6459 7.5C16.6321 7.5 16.6184 7.5 16.6046 7.5C16.5908 7.5 16.577 7.5 16.5632 7.5C16.5494 7.5 16.5355 7.5 16.5217 7.5C16.5078 7.5 16.4939 7.5 16.48 7.5C16.4661 7.5 16.4522 7.5 16.4382 7.5C16.4243 7.5 16.4104 7.5 16.3964 7.5C16.3824 7.5 16.3684 7.5 16.3544 7.5C16.3404 7.5 16.3263 7.5 16.3123 7.5C16.2982 7.5 16.2842 7.5 16.2701 7.5C16.256 7.5 16.2419 7.5 16.2278 7.5C16.2136 7.5 16.1995 7.5 16.1853 7.5C16.1712 7.5 16.157 7.5 16.1428 7.5C16.1286 7.5 16.1144 7.5 16.1001 7.5C16.0859 7.5 16.0716 7.5 16.0574 7.5C16.0431 7.5 16.0288 7.5 16.0145 7.5C16.0002 7.5 15.9859 7.5 15.9715 7.5C15.9572 7.5 15.9429 7.5 15.9285 7.5C15.9141 7.5 15.8997 7.5 15.8853 7.5C15.8709 7.5 15.8565 7.5 15.842 7.5C15.8276 7.5 15.8131 7.5 15.7986 7.5C15.7842 7.5 15.7697 7.5 15.7552 7.5C15.7406 7.5 15.7261 7.5 15.7116 7.5C15.697 7.5 15.6825 7.5 15.6679 7.5C15.6533 7.5 15.6387 7.5 15.6241 7.5C15.6095 7.5 15.5949 7.5 15.5802 7.5C15.5656 7.5 15.5509 7.5 15.5363 7.5C15.5216 7.5 15.5069 7.5 15.4922 7.5C15.4775 7.5 15.4627 7.5 15.448 7.5C15.4333 7.5 15.4185 7.5 15.4037 7.5C15.389 7.5 15.3742 7.5 15.3594 7.5C15.3446 7.5 15.3298 7.5 15.3149 7.5C15.3001 7.5 15.2853 7.5 15.2704 7.5C15.2555 7.5 15.2407 7.5 15.2258 7.5C15.2109 7.5 15.196 7.5 15.1811 7.5C15.1661 7.5 15.1512 7.5 15.1362 7.5C15.1213 7.5 15.1063 7.5 15.0913 7.5C15.0764 7.5 15.0614 7.5 15.0464 7.5C15.0313 7.5 15.0163 7.5 15.0013 7.5C14.9862 7.5 14.9712 7.5 14.9561 7.5C14.9411 7.5 14.926 7.5 14.9109 7.5C14.8958 7.5 14.8807 7.5 14.8656 7.5C14.8504 7.5 14.8353 7.5 14.8201 7.5C14.805 7.5 14.7898 7.5 14.7747 7.5C14.7595 7.5 14.7443 7.5 14.7291 7.5C14.7139 7.5 14.6987 7.5 14.6834 7.5C14.6682 7.5 14.6529 7.5 14.6377 7.5C14.6224 7.5 14.6072 7.5 14.5919 7.5C14.5766 7.5 14.5613 7.5 14.546 7.5C14.5307 7.5 14.5154 7.5 14.5 7.5C14.4847 7.5 14.4693 7.5 14.454 7.5C14.4386 7.5 14.4232 7.5 14.4078 7.5C14.3925 7.5 14.3771 7.5 14.3617 7.5C14.3462 7.5 14.3308 7.5 14.3154 7.5C14.2999 7.5 14.2845 7.5 14.269 7.5C14.2536 7.5 14.2381 7.5 14.2226 7.5C14.2071 7.5 14.1917 7.5 14.1761 7.5C14.1606 7.5 14.1451 7.5 14.1296 7.5C14.1141 7.5 14.0985 7.5 14.083 7.5C14.0674 7.5 14.0518 7.5 14.0363 7.5C14.0207 7.5 14.0051 7.5 13.9895 7.5C13.9739 7.5 13.9583 7.5 13.9427 7.5C13.9271 7.5 13.9114 7.5 13.8958 7.5C13.8801 7.5 13.8645 7.5 13.8488 7.5C13.8332 7.5 13.8175 7.5 13.8018 7.5C13.7861 7.5 13.7704 7.5 13.7547 7.5C13.739 7.5 13.7233 7.5 13.7076 7.5C13.6918 7.5 13.6761 7.5 13.6604 7.5C13.6446 7.5 13.6289 7.5 13.6131 7.5C13.5973 7.5 13.5815 7.5 13.5658 7.5C13.55 7.5 13.5342 7.5 13.5184 7.5C13.5026 7.5 13.4867 7.5 13.4709 7.5C13.4551 7.5 13.4393 7.5 13.4234 7.5C13.4076 7.5 13.3917 7.5 13.3759 7.5C13.36 7.5 13.3441 7.5 13.3282 7.5C13.3124 7.5 13.2965 7.5 13.2806 7.5C13.2647 7.5 13.2488 7.5 13.2328 7.5C13.2169 7.5 13.201 7.5 13.1851 7.5C13.1691 7.5 13.1532 7.5 13.1372 7.5C13.1213 7.5 13.1053 7.5 13.0893 7.5C13.0734 7.5 13.0574 7.5 13.0414 7.5C13.0254 7.5 13.0094 7.5 12.9934 7.5C12.9774 7.5 12.9614 7.5 12.9454 7.5C12.9294 7.5 12.9134 7.5 12.8973 7.5C12.8813 7.5 12.8652 7.5 12.8492 7.5C12.8331 7.5 12.8171 7.5 12.801 7.5C12.785 7.5 12.7689 7.5 12.7528 7.5C12.7367 7.5 12.7206 7.5 12.7045 7.5C12.6884 7.5 12.6723 7.5 12.6562 7.5C12.6401 7.5 12.624 7.5 12.6079 7.5C12.5918 7.5 12.5756 7.5 12.5595 7.5C12.5434 7.5 12.5272 7.5 12.5111 7.5C12.4949 7.5 12.4787 7.5 12.4626 7.5C12.4464 7.5 12.4303 7.5 12.4141 7.5C12.3979 7.5 12.3817 7.5 12.3655 7.5C12.3493 7.5 12.3331 7.5 12.3169 7.5C12.3007 7.5 12.2845 7.5 12.2683 7.5C12.2521 7.5 12.2359 7.5 12.2197 7.5C12.2034 7.5 12.1872 7.5 12.171 7.5C12.1547 7.5 12.1385 7.5 12.1222 7.5C12.106 7.5 12.0897 7.5 12.0735 7.5C12.0572 7.5 12.0409 7.5 12.0247 7.5C12.0084 7.5 11.9921 7.5 11.9758 7.5C11.9596 7.5 11.9433 7.5 11.927 7.5C11.9107 7.5 11.8944 7.5 11.8781 7.5C11.8618 7.5 11.8455 7.5 11.8292 7.5C11.8129 7.5 11.7966 7.5 11.7802 7.5C11.7639 7.5 11.7476 7.5 11.7313 7.5C11.7149 7.5 11.6986 7.5 11.6823 7.5C11.6659 7.5 11.6496 7.5 11.6333 7.5C11.6169 7.5 11.6006 7.5 11.5842 7.5C11.5679 7.5 11.5515 7.5 11.5351 7.5C11.5188 7.5 11.5024 7.5 11.486 7.5C11.4697 7.5 11.4533 7.5 11.4369 7.5C11.4206 7.5 11.4042 7.5 11.3878 7.5C11.3714 7.5 11.355 7.5 11.3386 7.5C11.3222 7.5 11.3059 7.5 11.2895 7.5C11.2731 7.5 11.2567 7.5 11.2403 7.5C11.2239 7.5 11.2075 7.5 11.191 7.5C11.1746 7.5 11.1582 7.5 11.1418 7.5C11.1254 7.5 11.109 7.5 11.0926 7.5C11.0762 7.5 11.0597 7.5 11.0433 7.5C11.0269 7.5 11.0105 7.5 10.994 7.5C10.9776 7.5 10.9612 7.5 10.9447 7.5C10.9283 7.5 10.9119 7.5 10.8954 7.5C10.879 7.5 10.8626 7.5 10.8461 7.5C10.8297 7.5 10.8132 7.5 10.7968 7.5C10.7804 7.5 10.7639 7.5 10.7475 7.5C10.731 7.5 10.7146 7.5 10.6981 7.5C10.6817 7.5 10.6652 7.5 10.6488 7.5C10.6323 7.5 10.6159 7.5 10.5994 7.5C10.583 7.5 10.5665 7.5 10.5501 7.5C10.5336 7.5 10.5171 7.5 10.5007 7.5C10.4842 7.5 10.4678 7.5 10.4513 7.5C10.4348 7.5 10.4184 7.5 10.4019 7.5C10.3855 7.5 10.369 7.5 10.3525 7.5C10.3361 7.5 10.3196 7.5 10.3032 7.5C10.2867 7.5 10.2702 7.5 10.2538 7.5C10.2373 7.5 10.2208 7.5 10.2044 7.5C10.1879 7.5 10.1715 7.5 10.155 7.5C10.1385 7.5 10.1221 7.5 10.1056 7.5C10.0891 7.5 10.0727 7.5 10.0562 7.5C10.0398 7.5 10.0233 7.5 10.0068 7.5C9.99038 7.5 9.97392 7.5 9.95746 7.5C9.94101 7.5 9.92455 7.5 9.90809 7.5C9.89164 7.5 9.87518 7.5 9.85873 7.5C9.84227 7.5 9.82582 7.5 9.80936 7.5C9.79291 7.5 9.77646 7.5 9.76001 7.5C9.74356 7.5 9.72711 7.5 9.71067 7.5C9.69422 7.5 9.67777 7.5 9.66133 7.5C9.64489 7.5 9.62844 7.5 9.612 7.5C9.59556 7.5 9.57912 7.5 9.56269 7.5C9.54625 7.5 9.52981 7.5 9.51338 7.5C9.49695 7.5 9.48052 7.5 9.46409 7.5C9.44766 7.5 9.43123 7.5 9.41481 7.5C9.39839 7.5 9.38197 7.5 9.36555 7.5C9.34913 7.5 9.33271 7.5 9.3163 7.5C9.29988 7.5 9.28347 7.5 9.26706 7.5C9.25065 7.5 9.23425 7.5 9.21784 7.5C9.20144 7.5 9.18504 7.5 9.16865 7.5C9.15225 7.5 9.13585 7.5 9.11946 7.5C9.10307 7.5 9.08669 7.5 9.0703 7.5C9.05392 7.5 9.03754 7.5 9.02116 7.5C9.00478 7.5 8.98841 7.5 8.97204 7.5C8.95567 7.5 8.9393 7.5 8.92294 7.5C8.90658 7.5 8.89022 7.5 8.87386 7.5C8.85751 7.5 8.84116 7.5 8.82481 7.5C8.80846 7.5 8.79212 7.5 8.77578 7.5C8.75944 7.5 8.74311 7.5 8.72678 7.5C8.71045 7.5 8.69412 7.5 8.6778 7.5C8.66148 7.5 8.64517 7.5 8.62885 7.5C8.61254 7.5 8.59623 7.5 8.57993 7.5C8.56363 7.5 8.54733 7.5 8.53104 7.5C8.51475 7.5 8.49846 7.5 8.48217 7.5C8.46589 7.5 8.44961 7.5 8.43334 7.5C8.41707 7.5 8.4008 7.5 8.38454 7.5C8.36828 7.5 8.35202 7.5 8.33577 7.5C8.31952 7.5 8.30327 7.5 8.28703 7.5C8.27079 7.5 8.25456 7.5 8.23833 7.5C8.2221 7.5 8.20588 7.5 8.18966 7.5C8.17345 7.5 8.15724 7.5 8.14103 7.5C8.12483 7.5 8.10863 7.5 8.09243 7.5C8.07624 7.5 8.06006 7.5 8.04388 7.5C8.0277 7.5 8.01152 7.5 7.99536 7.5C7.97919 7.5 7.96303 7.5 7.94688 7.5C7.93072 7.5 7.91457 7.5 7.89843 7.5C7.88229 7.5 7.86616 7.5 7.85003 7.5C7.83391 7.5 7.81779 7.5 7.80167 7.5C7.78556 7.5 7.76946 7.5 7.75336 7.5C7.73726 7.5 7.72117 7.5 7.70509 7.5C7.689 7.5 7.67293 7.5 7.65686 7.5C7.64079 7.5 7.62473 7.5 7.60867 7.5C7.59262 7.5 7.57657 7.5 7.56054 7.5C7.5445 7.5 7.52847 7.5 7.51244 7.5C7.49642 7.5 7.48041 7.5 7.4644 7.5C7.4484 7.5 7.4324 7.5 7.41641 7.5C7.40042 7.5 7.38444 7.5 7.36846 7.5C7.35249 7.5 7.33652 7.5 7.32057 7.5C7.30461 7.5 7.28866 7.5 7.27272 7.5C7.25678 7.5 7.24085 7.5 7.22493 7.5C7.20901 7.5 7.1931 7.5 7.17719 7.5C7.16129 7.5 7.14539 7.5 7.12951 7.5C7.11362 7.5 7.09775 7.5 7.08188 7.5C7.06601 7.5 7.05015 7.5 7.0343 7.5C7.01845 7.5 7.00261 7.5 6.98678 7.5C6.97095 7.5 6.95513 7.5 6.93932 7.5C6.92351 7.5 6.90771 7.5 6.89192 7.5C6.87613 7.5 6.86034 7.5 6.84457 7.5C6.8288 7.5 6.81304 7.5 6.79729 7.5C6.78154 7.5 6.7658 7.5 6.75006 7.5C6.73433 7.5 6.71861 7.5 6.7029 7.5C6.68719 7.5 6.67149 7.5 6.6558 7.5C6.64011 7.5 6.62443 7.5 6.60876 7.5C6.59309 7.5 6.57744 7.5 6.56179 7.5C6.54614 7.5 6.53051 7.5 6.51488 7.5C6.49926 7.5 6.48364 7.5 6.46804 7.5C6.45243 7.5 6.43684 7.5 6.42126 7.5C6.40568 7.5 6.39011 7.5 6.37455 7.5C6.35899 7.5 6.34345 7.5 6.32791 7.5C6.31238 7.5 6.29685 7.5 6.28134 7.5C6.26583 7.5 6.25033 7.5 6.23484 7.5C6.21935 7.5 6.20388 7.5 6.18841 7.5C6.17295 7.5 6.15749 7.5 6.14205 7.5C6.12661 7.5 6.11118 7.5 6.09577 7.5C6.08035 7.5 6.06495 7.5 6.04955 7.5C6.03416 7.5 6.01878 7.5 6.00342 7.5C5.98805 7.5 5.9727 7.5 5.95735 7.5C5.94201 7.5 5.92668 7.5 5.91137 7.5C5.89605 7.5 5.88075 7.5 5.86546 7.5C5.85017 7.5 5.83489 7.5 5.81963 7.5C5.80436 7.5 5.78911 7.5 5.77387 7.5C5.75864 7.5 5.74341 7.5 5.7282 7.5C5.71299 7.5 5.69779 7.5 5.68261 7.5C5.66742 7.5 5.65225 7.5 5.63709 7.5C5.62194 7.5 5.60679 7.5 5.59166 7.5C5.57654 7.5 5.56142 7.5 5.54632 7.5C5.53122 7.5 5.51613 7.5 5.50106 7.5C5.48598 7.5 5.47092 7.5 5.45588 7.5C5.44083 7.5 5.4258 7.5 5.41078 7.5C5.39577 7.5 5.38077 7.5 5.36578 7.5C5.35079 7.5 5.33582 7.5 5.32086 7.5C5.3059 7.5 5.29096 7.5 5.27603 7.5C5.2611 7.5 5.24619 7.5 5.23129 7.5C5.21639 7.5 5.2015 7.5 5.18663 7.5C5.17177 7.5 5.15691 7.5 5.14207 7.5C5.12724 7.5 5.11241 7.5 5.0976 7.5C5.0828 7.5 5.068 7.5 5.05323 7.5C5.03845 7.5 5.02369 7.5 5.00894 7.5C4.9942 7.5 4.97947 7.5 4.96475 7.5C4.95004 7.5 4.93534 7.5 4.92066 7.5C4.90598 7.5 4.89131 7.5 4.87666 7.5C4.86201 7.5 4.84738 7.5 4.83276 7.5C4.81814 7.5 4.80354 7.5 4.78895 7.5C4.77437 7.5 4.7598 7.5 4.74525 7.5C4.7307 7.5 4.71616 7.5 4.70164 7.5C4.68712 7.5 4.67262 7.5 4.65814 7.5C4.64365 7.5 4.62918 7.5 4.61473 7.5C4.60028 7.5 4.58584 7.5 4.57143 7.5C4.55701 7.5 4.54261 7.5 4.52823 7.5C4.51384 7.5 4.49948 7.5 4.48513 7.5C4.47078 7.5 4.45645 7.5 4.44214 7.5C4.42782 7.5 4.41353 7.5 4.39925 7.5C4.38497 7.5 4.37071 7.5 4.35647 7.5C4.34223 7.5 4.328 7.5 4.3138 7.5C4.29959 7.5 4.2854 7.5 4.27123 7.5C4.25706 7.5 4.24291 7.5 4.22877 7.5C4.21464 7.5 4.20052 7.5 4.18643 7.5C4.17233 7.5 4.15825 7.5 4.14419 7.5C4.13013 7.5 4.11609 7.5 4.10206 7.5C4.08804 7.5 4.07404 7.5 4.06005 7.5C4.04607 7.5 4.0321 7.5 4.01815 7.5C4.0042 7.5 3.99028 7.5 3.97637 7.5C3.96246 7.5 3.94857 7.5 3.93469 7.5C3.92082 7.5 3.90697 7.5 3.89314 7.5C3.87931 7.5 3.86549 7.5 3.8517 7.5C3.83791 7.5 3.82413 7.5 3.81038 7.5C3.79662 7.5 3.78289 7.5 3.76918 7.5C3.75546 7.5 3.74177 7.5 3.72809 7.5C3.71442 7.5 3.70076 7.5 3.68713 7.5C3.67349 7.5 3.65988 7.5 3.64628 7.5C3.63269 7.5 3.61912 7.5 3.60556 7.5C3.59201 7.5 3.57848 7.5 3.56496 7.5C3.55145 7.5 3.53796 7.5 3.52449 7.5C3.51102 7.5 3.49757 7.5 3.48414 7.5C3.47071 7.5 3.4573 7.5 3.44391 7.5C3.43052 7.5 3.41716 7.5 3.40381 7.5C3.39047 7.5 3.37714 7.5 3.36384 7.5C3.35054 7.5 3.33725 7.5 3.32399 7.5C3.31073 7.5 3.29749 7.5 3.28428 7.5C3.27106 7.5 3.25786 7.5 3.24469 7.5C3.23152 7.5 3.21836 7.5 3.20523 7.5C3.1921 7.5 3.17899 7.5 3.16591 7.5C3.15282 7.5 3.13976 7.5 3.12671 7.5C3.11367 7.5 3.10065 7.5 3.08765 7.5C3.07466 7.5 3.06168 7.5 3.04873 7.5C3.03577 7.5 3.02284 7.5 3.00993 7.5C2.99703 7.5 2.98414 7.5 2.97128 7.5C2.95842 7.5 2.94558 7.5 2.93276 7.5C2.91994 7.5 2.90715 7.5 2.89437 7.5C2.8816 7.5 2.86885 7.5 2.85613 7.5C2.8434 7.5 2.8307 7.5 2.81802 7.5C2.80534 7.5 2.79269 7.5 2.78006 7.5C2.76743 7.5 2.75482 7.5 2.74223 7.5C2.72965 7.5 2.71709 7.5 2.70455 7.5C2.69201 7.5 2.6795 7.5 2.66701 7.5C2.65452 7.5 2.64205 7.5 2.62961 7.5V8.5ZM12 22V21C8.1392 21 4.84379 18.5685 3.56634 15.15L2.62961 15.5L1.69287 15.85C3.2529 20.0248 7.27775 23 12 23V22ZM2.62961 15.5L3.56634 15.15C3.20049 14.1709 3 13.11 3 12H2H1C1 13.3526 1.24461 14.6504 1.69287 15.85L2.62961 15.5ZM22 12H21C21 13.11 20.7995 14.1709 20.4337 15.15L21.3704 15.5L22.3071 15.85C22.7554 14.6504 23 13.3526 23 12H22ZM21.3704 15.5L20.4337 15.15C19.1562 18.5685 15.8608 21 12 21V22V23C16.7223 23 20.7471 20.0248 22.3071 15.85L21.3704 15.5ZM2.62961 15.5L2.62961 16.5L21.3704 16.5V15.5V14.5L2.62961 14.5L2.62961 15.5ZM11 2C10.1056 1.55279 10.1054 1.55306 10.1053 1.55336C10.1052 1.55347 10.1051 1.55378 10.105 1.55402C10.1047 1.55449 10.1045 1.55503 10.1042 1.55562C10.1036 1.55681 10.1029 1.55825 10.102 1.55993C10.1004 1.5633 10.0982 1.56764 10.0956 1.57296C10.0904 1.58359 10.0834 1.59811 10.0747 1.61645C10.0572 1.65315 10.0329 1.70516 10.0027 1.77201C9.94232 1.90568 9.85846 2.09878 9.75902 2.34736C9.56022 2.84437 9.29879 3.56419 9.03848 4.47528C8.51818 6.2963 8 8.88978 8 12H9H10C10 9.11022 10.4818 6.7037 10.9615 5.02472C11.2012 4.18581 11.4398 3.53063 11.616 3.09014C11.704 2.86997 11.7764 2.70369 11.8254 2.59518C11.8499 2.54093 11.8686 2.50115 11.8804 2.47632C11.8863 2.46391 11.8905 2.45523 11.8929 2.45036C11.8941 2.44792 11.8948 2.44644 11.8951 2.44591C11.8952 2.44565 11.8952 2.44562 11.8951 2.44584C11.8951 2.44595 11.895 2.44612 11.8949 2.44635C11.8948 2.44646 11.8947 2.44668 11.8947 2.44673C11.8946 2.44697 11.8944 2.44721 11 2ZM9 12H8C8 15.1102 8.51818 17.7037 9.03848 19.5247C9.29879 20.4358 9.56022 21.1556 9.75902 21.6526C9.85846 21.9012 9.94232 22.0943 10.0027 22.228C10.0329 22.2948 10.0572 22.3469 10.0747 22.3835C10.0834 22.4019 10.0904 22.4164 10.0956 22.427C10.0982 22.4324 10.1004 22.4367 10.102 22.4401C10.1029 22.4417 10.1036 22.4432 10.1042 22.4444C10.1045 22.445 10.1047 22.4455 10.105 22.446C10.1051 22.4462 10.1052 22.4465 10.1053 22.4466C10.1054 22.4469 10.1056 22.4472 11 22C11.8944 21.5528 11.8946 21.553 11.8947 21.5533C11.8947 21.5533 11.8948 21.5535 11.8949 21.5537C11.895 21.5539 11.8951 21.5541 11.8951 21.5542C11.8952 21.5544 11.8952 21.5544 11.8951 21.5541C11.8948 21.5536 11.8941 21.5521 11.8929 21.5496C11.8905 21.5448 11.8863 21.5361 11.8804 21.5237C11.8686 21.4988 11.8499 21.4591 11.8254 21.4048C11.7764 21.2963 11.704 21.13 11.616 20.9099C11.4398 20.4694 11.2012 19.8142 10.9615 18.9753C10.4818 17.2963 10 14.8898 10 12H9ZM13 2C12.1056 2.44721 12.1054 2.44697 12.1053 2.44673C12.1053 2.44668 12.1052 2.44646 12.1051 2.44635C12.105 2.44612 12.1049 2.44595 12.1049 2.44584C12.1048 2.44562 12.1048 2.44565 12.1049 2.44591C12.1052 2.44644 12.1059 2.44792 12.1071 2.45036C12.1095 2.45523 12.1137 2.46391 12.1196 2.47632C12.1314 2.50115 12.1501 2.54093 12.1746 2.59518C12.2236 2.70369 12.296 2.86997 12.384 3.09014C12.5602 3.53063 12.7988 4.18581 13.0385 5.02472C13.5182 6.7037 14 9.11022 14 12H15H16C16 8.88978 15.4818 6.2963 14.9615 4.47528C14.7012 3.56419 14.4398 2.84437 14.241 2.34736C14.1415 2.09878 14.0577 1.90568 13.9973 1.77201C13.9671 1.70516 13.9428 1.65315 13.9253 1.61645C13.9166 1.59811 13.9096 1.58359 13.9044 1.57296C13.9018 1.56764 13.8996 1.5633 13.898 1.55993C13.8971 1.55825 13.8964 1.55681 13.8958 1.55562C13.8955 1.55503 13.8953 1.55449 13.895 1.55402C13.8949 1.55378 13.8948 1.55347 13.8947 1.55336C13.8946 1.55306 13.8944 1.55279 13 2ZM15 12H14C14 14.8898 13.5182 17.2963 13.0385 18.9753C12.7988 19.8142 12.5602 20.4694 12.384 20.9099C12.296 21.13 12.2236 21.2963 12.1746 21.4048C12.1501 21.4591 12.1314 21.4988 12.1196 21.5237C12.1137 21.5361 12.1095 21.5448 12.1071 21.5496C12.1059 21.5521 12.1052 21.5536 12.1049 21.5541C12.1048 21.5544 12.1048 21.5544 12.1049 21.5542C12.1049 21.5541 12.105 21.5539 12.1051 21.5537C12.1052 21.5535 12.1053 21.5533 12.1053 21.5533C12.1054 21.553 12.1056 21.5528 13 22C13.8944 22.4472 13.8946 22.4469 13.8947 22.4466C13.8948 22.4465 13.8949 22.4462 13.895 22.446C13.8953 22.4455 13.8955 22.445 13.8958 22.4444C13.8964 22.4432 13.8971 22.4417 13.898 22.4401C13.8996 22.4367 13.9018 22.4324 13.9044 22.427C13.9096 22.4164 13.9166 22.4019 13.9253 22.3835C13.9428 22.3469 13.9671 22.2948 13.9973 22.228C14.0577 22.0943 14.1415 21.9012 14.241 21.6526C14.4398 21.1556 14.7012 20.4358 14.9615 19.5247C15.4818 17.7037 16 15.1102 16 12H15Z" fill="currentColor"/>
</svg>
