<svg width="24" height="24" viewBox="0 0 24 24" fill="none" xmlns="http://www.w3.org/2000/svg">
<path d="M12 21C11.7 21 11.4 20.89 11.17 20.67L3.7 13.44C2.64 12.38 2.03 10.95 2 9.45C1.97 7.95 2.52 6.5 3.53 5.4C4.54 4.3 5.93 3.64 7.42 3.57C8.91 3.5 10.36 4.02 11.47 5.02L12 5.52L12.53 5.02C13.64 4.02 15.09 3.5 16.58 3.57C18.07 3.64 19.46 4.3 20.47 5.4C21.48 6.5 22.03 7.95 22 9.45C21.97 10.95 21.36 12.38 20.3 13.44L12.83 20.67C12.6 20.89 12.3 21 12 21Z" stroke="currentColor" stroke-width="2.0" stroke-linejoin="round"></path>
</svg>
