<svg width="24" height="24" viewBox="0 0 24 24" fill="none" xmlns="http://www.w3.org/2000/svg">
<g transform="translate(1,1)">
<path d="M3.03621 18.7686V9.213H2.25428C1.28813 9.213 0.883665 7.9788 1.66241 7.40697L9.51914 1.63777C10.2235 1.12053 11.1822 1.12053 11.8866 1.63777L19.7433 7.40697C20.5221 7.9788 20.1176 9.213 19.1515 9.213H18.3695V18.7686C18.3695 19.3208 17.9218 19.7686 17.3695 19.7686H14.6844C14.1321 19.7686 13.6844 19.3208 13.6844 18.7686V14.013C13.6844 13.4607 13.2366 13.013 12.6844 13.013H8.7214C8.16911 13.013 7.7214 13.4607 7.7214 14.013V18.7686C7.7214 19.3208 7.27368 19.7686 6.7214 19.7686H4.03621C3.48393 19.7686 3.03621 19.3208 3.03621 18.7686Z" stroke="currentColor" stroke-width="2.0"/>
</g>
</svg>
