<svg width="24" height="24" viewBox="0 0 24 24" fill="none" xmlns="http://www.w3.org/2000/svg">
<path d="M4.03623 19.7686V10.213H3.2543C2.28815 10.213 1.88369 8.97881 2.66243 8.40698L10.5192 2.63778C11.2235 2.12054 12.1822 2.12054 12.8866 2.63778L20.7433 8.40698C21.5221 8.97881 21.1176 10.213 20.1515 10.213H19.3695V19.7686C19.3695 20.3208 18.9218 20.7686 18.3695 20.7686H15.6844C15.1321 20.7686 14.6844 20.3208 14.6844 19.7686V15.013C14.6844 14.4607 14.2366 14.013 13.6844 14.013H9.72142C9.16913 14.013 8.72142 14.4607 8.72142 15.013V19.7686C8.72142 20.3208 8.2737 20.7686 7.72142 20.7686H5.03623C4.48395 20.7686 4.03623 20.3208 4.03623 19.7686Z" stroke="black" stroke-width="2" stroke-linejoin="round"/>
</svg>
