<svg width="24" height="24" viewBox="0 0 24 24" fill="none" xmlns="http://www.w3.org/2000/svg">
<path d="M4.78385 20.5188V10.9632H4.00192C3.03577 10.9632 2.63131 9.72896 3.41005 9.15713L11.2668 3.38793C11.9711 2.87069 12.9298 2.87069 13.6342 3.38793L21.4909 9.15713C22.2697 9.72896 21.8652 10.9632 20.8991 10.9632H20.1171V20.5188C20.1171 21.071 19.6694 21.5188 19.1171 21.5188H16.432C15.8797 21.5188 15.432 21.071 15.432 20.5188V15.7632C15.432 15.2109 14.9842 14.7632 14.432 14.7632H10.469C9.91675 14.7632 9.46904 15.2109 9.46904 15.7632V20.5188C9.46904 21.071 9.02132 21.5188 8.46904 21.5188H5.78385C5.23157 21.5188 4.78385 21.071 4.78385 20.5188Z" stroke="currentColor" stroke-width="2" stroke-linejoin="round"/>
</svg>
