<svg width="24" height="24" viewBox="0 0 24 24" fill="none" xmlns="http://www.w3.org/2000/svg">
<path d="M12 8C11.7239 8 11.5 7.77614 11.5 7.5C11.5 7.22386 11.7239 7 12 7C12.2761 7 12.5 7.22386 12.5 7.5C12.5 7.77614 12.2761 8 12 8Z" fill="currentColor"/>
<path d="M13 11.5C13 10.9477 12.5523 10.5 12 10.5C11.4477 10.5 11 10.9477 11 11.5H12H13ZM11 17.5C11 18.0523 11.4477 18.5 12 18.5C12.5523 18.5 13 18.0523 13 17.5H12H11ZM12 22V21C7.02944 21 3 16.9706 3 12H2H1C1 18.0751 5.92487 23 12 23V22ZM2 12H3C3 7.02944 7.02944 3 12 3V2V1C5.92487 1 1 5.92487 1 12H2ZM12 2V3C16.9706 3 21 7.02944 21 12H22H23C23 5.92487 18.0751 1 12 1V2ZM22 12H21C21 16.9706 16.9706 21 12 21V22V23C18.0751 23 23 18.0751 23 12H22ZM12 8V7C12.2761 7 12.5 7.22386 12.5 7.5H11.5H10.5C10.5 8.32842 11.1716 9 12 9V8ZM11.5 7.5H12.5C12.5 7.77614 12.2761 8 12 8V7V6C11.1716 6 10.5 6.67157 10.5 7.5H11.5ZM12 7V8C11.7239 8 11.5 7.77614 11.5 7.5H12.5H13.5C13.5 6.67157 12.8284 6 12 6V7ZM12.5 7.5H11.5C11.5 7.22386 11.7239 7 12 7V8V9C12.8284 9 13.5 8.32842 13.5 7.5H12.5ZM12 11.5H11V17.5H12H13V11.5H12Z" fill="currentColor"/>
</svg>
