<svg width="24" height="24" viewBox="0 0 24 24" fill="none" xmlns="http://www.w3.org/2000/svg">
<path d="M11.5 5C12.0523 5 12.5 4.55228 12.5 4C12.5 3.44772 12.0523 3 11.5 3V4V5ZM21 12C21 11.4477 20.5523 11 20 11C19.4477 11 19 11.4477 19 12H20H21ZM15.5 3C14.9477 3 14.5 3.44772 14.5 4C14.5 4.55228 14.9477 5 15.5 5V4V3ZM19 8.5C19 9.05228 19.4477 9.5 20 9.5C20.5523 9.5 21 9.05228 21 8.5H20H19ZM8.79289 13.7929C8.40237 14.1834 8.40237 14.8166 8.79289 15.2071C9.18342 15.5976 9.81658 15.5976 10.2071 15.2071L9.5 14.5L8.79289 13.7929ZM4 6H3V18H4H5V6H4ZM6 20V21H18V20V19H6V20ZM6 4V5H11.5V4V3H6V4ZM20 18H21V12H20H19V18H20ZM18 20V21C19.6569 21 21 19.6569 21 18H20H19C19 18.5523 18.5523 19 18 19V20ZM4 18H3C3 19.6569 4.34315 21 6 21V20V19C5.44772 19 5 18.5523 5 18H4ZM4 6H5C5 5.44772 5.44772 5 6 5V4V3C4.34315 3 3 4.34315 3 6H4ZM15.5 4V5H18.5V4V3H15.5V4ZM20 5.5H19V8.5H20H21V5.5H20ZM18.5 4V5C18.7761 5 19 5.22386 19 5.5H20H21C21 4.11929 19.8807 3 18.5 3V4ZM20 4L19.2929 3.29289L8.79289 13.7929L9.5 14.5L10.2071 15.2071L20.7071 4.70711L20 4Z" fill="currentColor"/>
</svg>
