<svg width="24" height="24" viewBox="0 0 24 24" fill="none" xmlns="http://www.w3.org/2000/svg">
<g transform="scale(1.26316)">
<path fill-rule="evenodd" clip-rule="evenodd" d="M15.3527 9.33334C15.3527 9.14168 15.3444 8.95834 15.3277 8.76668L16.8777 7.59167C17.2111 7.34167 17.3027 6.87501 17.0944 6.50835L15.5361 3.81667C15.3277 3.45 14.8777 3.30001 14.4944 3.46667L12.7027 4.22501C12.3944 4.00834 12.0694 3.81667 11.7277 3.65834L11.4861 1.73334C11.4361 1.31667 11.0777 1 10.6611 1H7.55275C7.12775 1 6.76942 1.31667 6.71942 1.73334L6.47775 3.65834C6.13608 3.81667 5.81108 4.00834 5.50275 4.22501L3.71108 3.46667C3.32775 3.30001 2.87775 3.45 2.66942 3.81667L1.11108 6.51668C0.902748 6.88334 0.994415 7.34167 1.32775 7.60001L2.87775 8.77501C2.86108 8.95834 2.85275 9.14168 2.85275 9.33334C2.85275 9.52501 2.86108 9.70834 2.87775 9.90001L1.32775 11.075C0.994415 11.325 0.902748 11.7917 1.11108 12.1583L2.66942 14.85C2.87775 15.2167 3.32775 15.3667 3.71108 15.2L5.50275 14.4417C5.81108 14.6583 6.13608 14.85 6.47775 15.0083L6.71942 16.9333C6.76942 17.35 7.12775 17.6667 7.54442 17.6667H10.6527C11.0694 17.6667 11.4277 17.35 11.4777 16.9333L11.7194 15.0083C12.0611 14.85 12.3861 14.6583 12.6944 14.4417L14.4861 15.2C14.8694 15.3667 15.3194 15.2167 15.5277 14.85L17.0861 12.1583C17.2944 11.7917 17.2027 11.3333 16.8694 11.075L15.3194 9.90001C15.3444 9.70834 15.3527 9.52501 15.3527 9.33334ZM9 12.5C10.6569 12.5 12 11.1587 12 9.50415C12 7.84959 10.6569 6.5083 9 6.5083C7.34315 6.5083 6 7.84959 6 9.50415C6 11.1587 7.34315 12.5 9 12.5Z" stroke="black" stroke-width="1.5" stroke-linecap="round" stroke-linejoin="round"/>
</g>
</svg>
