<svg width="24" height="24" viewBox="0 0 24 24" fill="none" xmlns="http://www.w3.org/2000/svg">
<path fill-rule="evenodd" clip-rule="evenodd" d="M19.3929 11.7895C19.3929 11.5474 19.3824 11.3158 19.3613 11.0737L21.3192 9.58949C21.7404 9.2737 21.8561 8.68424 21.593 8.22109L19.6246 4.82107C19.3613 4.3579 18.7929 4.16844 18.3087 4.37896L16.0455 5.33686C15.6561 5.06318 15.2456 4.82107 14.814 4.62107L14.5088 2.18949C14.4456 1.66317 13.9929 1.26316 13.4667 1.26316H9.54033C9.00348 1.26316 8.55085 1.66317 8.4877 2.18949L8.18243 4.62107C7.75084 4.82107 7.34032 5.06318 6.95085 5.33686L4.68768 4.37896C4.20347 4.16844 3.63505 4.3579 3.3719 4.82107L1.40347 8.23161C1.14031 8.69476 1.2561 9.2737 1.67715 9.60003L3.63505 11.0842C3.614 11.3158 3.60347 11.5474 3.60347 11.7895C3.60347 12.0316 3.614 12.2632 3.63505 12.5053L1.67715 13.9895C1.2561 14.3053 1.14031 14.8948 1.40347 15.3579L3.3719 18.7579C3.63505 19.2211 4.20347 19.4106 4.68768 19.2L6.95085 18.2422C7.34032 18.5158 7.75084 18.7579 8.18243 18.9579L8.4877 21.3895C8.55085 21.9158 9.00348 22.3159 9.5298 22.3159H13.4561C13.9824 22.3159 14.435 21.9158 14.4982 21.3895L14.8035 18.9579C15.2351 18.7579 15.6456 18.5158 16.0351 18.2422L18.2983 19.2C18.7824 19.4106 19.3508 19.2211 19.614 18.7579L21.5825 15.3579C21.8456 14.8948 21.7298 14.3158 21.3087 13.9895L19.3508 12.5053C19.3824 12.2632 19.3929 12.0316 19.3929 11.7895ZM11.3684 15.7895C13.4614 15.7895 15.1579 14.0952 15.1579 12.0053C15.1579 9.91529 13.4614 8.22102 11.3684 8.22102C9.27557 8.22102 7.57895 9.91529 7.57895 12.0053C7.57895 14.0952 9.27557 15.7895 11.3684 15.7895Z" stroke="currentColor" stroke-width="1.89474" stroke-linecap="round" stroke-linejoin="round"/>
</svg>
