<svg width="24" height="24" viewBox="0 0 24 24" fill="none" xmlns="http://www.w3.org/2000/svg">
<path d="M6 14.5C7.38071 14.5 8.5 13.3807 8.5 12C8.5 10.6193 7.38071 9.5 6 9.5C4.61929 9.5 3.5 10.6193 3.5 12C3.5 13.3807 4.61929 14.5 6 14.5Z" stroke="currentColor" stroke-width="2" stroke-linecap="round" stroke-linejoin="round"/>
<path d="M17.5 8.25C18.8807 8.25 20 7.13071 20 5.75C20 4.36929 18.8807 3.25 17.5 3.25C16.1193 3.25 15 4.36929 15 5.75C15 7.13071 16.1193 8.25 17.5 8.25Z" stroke="currentColor" stroke-width="2" stroke-linecap="round" stroke-linejoin="round"/>
<path d="M17.5 20.75C18.8807 20.75 20 19.6307 20 18.25C20 16.8693 18.8807 15.75 17.5 15.75C16.1193 15.75 15 16.8693 15 18.25C15 19.6307 16.1193 20.75 17.5 20.75Z" stroke="currentColor" stroke-width="2" stroke-linecap="round" stroke-linejoin="round"/>
<path d="M8.20001 10.8L15.3 7" stroke="currentColor" stroke-width="2" stroke-linecap="round" stroke-linejoin="round"/>
<path d="M8.20001 13.2L15.3 17" stroke="currentColor" stroke-width="2" stroke-linecap="round" stroke-linejoin="round"/>
</svg>
