<svg width="24" height="24" viewBox="0 0 24 24" fill="none" xmlns="http://www.w3.org/2000/svg">
<path d="M20.25 5.44186C20.25 6.99264 16.5563 8.25 12 8.25C7.44365 8.25 3.75 6.99264 3.75 5.44186M20.25 5.44186C20.25 3.89107 16.5563 2.63371 12 2.63371C7.44365 2.63371 3.75 3.89107 3.75 5.44186M20.25 5.44186V18.0581C20.25 19.6089 16.5563 20.8663 12 20.8663C7.44365 20.8663 3.75 19.6089 3.75 18.0581V5.44186M20.25 11.75C20.25 13.3008 16.5563 14.5581 12 14.5581C7.44365 14.5581 3.75 13.3008 3.75 11.75" stroke="currentColor" stroke-width="2" stroke-linecap="round"/>
</svg>
