<svg width="24" height="24" viewBox="0 0 24 24" fill="none" xmlns="http://www.w3.org/2000/svg">
<path d="M21.25 12C21.25 11.4477 20.8023 11 20.25 11C19.6977 11 19.25 11.4477 19.25 12H20.25H21.25ZM18.2884 8.38904C18.564 8.86764 19.1754 9.03219 19.654 8.75658C20.1326 8.48097 20.2972 7.86956 20.0216 7.39096L19.155 7.89L18.2884 8.38904ZM20.75 3.75C20.75 3.19772 20.3023 2.75 19.75 2.75C19.1977 2.75 18.75 3.19772 18.75 3.75H19.75H20.75ZM19.75 8.25V9.25C20.3023 9.25 20.75 8.80228 20.75 8.25H19.75ZM15.25 7.25C14.6977 7.25 14.25 7.69772 14.25 8.25C14.25 8.80228 14.6977 9.25 15.25 9.25V8.25V7.25ZM20.25 12H19.25C19.25 16.004 16.004 19.25 12 19.25V20.25V21.25C17.1086 21.25 21.25 17.1086 21.25 12H20.25ZM12 20.25V19.25C7.99594 19.25 4.75 16.004 4.75 12H3.75H2.75C2.75 17.1086 6.89136 21.25 12 21.25V20.25ZM3.75 12H4.75C4.75 7.99593 7.99593 4.75 12 4.75V3.75V2.75C6.89137 2.75 2.75 6.89137 2.75 12H3.75ZM12 3.75V4.75C14.6878 4.75 17.0345 6.21164 18.2884 8.38904L19.155 7.89L20.0216 7.39096C18.4255 4.61936 15.4322 2.75 12 2.75V3.75ZM19.75 3.75H18.75V8.25H19.75H20.75V3.75H19.75ZM19.75 8.25V7.25H15.25V8.25V9.25H19.75V8.25Z" fill="currentColor"/>
</svg>
