<svg width="24" height="24" viewBox="0 0 24 24" fill="none" xmlns="http://www.w3.org/2000/svg">
<g clip-path="url(#clip0_48_68)">
<path d="M12 22C6.47715 22 2 17.5228 2 12C2 6.47715 6.47715 2 12 2V22Z" fill="currentColor"/>
<path fill-rule="evenodd" clip-rule="evenodd" d="M12 22C6.47715 22 2 17.5228 2 12C2 6.47715 6.47715 2 12 2V22Z" fill="currentColor"/>
<path d="M12 22C6.47715 22 2 17.5228 2 12C2 6.47715 6.47715 2 12 2M12 22V2M12 22C17.5228 22 22 17.5228 22 12C22 6.47715 17.5228 2 12 2" stroke="currentColor" stroke-width="3" stroke-linejoin="round"/>
</g>
<defs>
<clipPath id="clip0_48_68">
<rect width="24" height="24"/>
</clipPath>
</defs>
</svg>
