<svg width="24" height="24" viewBox="0 0 24 24" fill="none" xmlns="http://www.w3.org/2000/svg">
<path d="M10.5 11C12.433 11 14 9.43299 14 7.5C14 5.567 12.433 4 10.5 4C8.567 4 7 5.567 7 7.5C7 9.43299 8.567 11 10.5 11Z" fill="currentColor" stroke="currentColor" stroke-width="2" stroke-linejoin="round"/>
<path d="M12 15C12 15 11.3461 14.216 10.5 14C7.15281 13.1455 4 16.3077 4 20L11.5 20C11.5 20 11.056 18.1605 11.28 17C11.4423 16.159 12 15 12 15Z" fill="currentColor" stroke="currentColor" stroke-width="2" stroke-linecap="round" stroke-linejoin="round"/>
<path d="M18 18.0016C18 19.1061 17.1046 20.0016 16 20.0016C14.8954 20.0016 14 19.1061 14 18.0016C14 16.897 14.8954 16.0016 16 16.0016C17.1046 16.0016 18 16.897 18 18.0016Z" fill="black"/>
<path d="M18 18.0016C18 19.1061 17.1046 20.0016 16 20.0016C14.8954 20.0016 14 19.1061 14 18.0016C14 16.897 14.8954 16.0016 16 16.0016C17.1046 16.0016 18 16.897 18 18.0016ZM18 18.0016C18 16.0489 18 14.2013 18 13.6016C18 13.0018 18 13.0018 19 13.0016C19.1406 12.998 19.5 13.0018 19.5 13.0018" stroke="currentColor" stroke-width="2" stroke-linecap="round"/>
</svg>
