<svg width="24" height="24" viewBox="0 0 24 24" fill="none" xmlns="http://www.w3.org/2000/svg">
<path fill-rule="evenodd" clip-rule="evenodd" d="M12 1C18.0751 1 23 5.92487 23 12C23 18.0751 18.0751 23 12 23C5.92487 23 1 18.0751 1 12C1 5.92487 5.92487 1 12 1ZM12 5C11.4477 5 11 5.44772 11 6V11.8711C11 12.2748 11.1949 12.654 11.5234 12.8887L14.9189 15.3135C15.3684 15.6345 15.9925 15.5305 16.3135 15.0811C16.6345 14.6316 16.5305 14.0075 16.0811 13.6865L13 11.4854V6C13 5.44772 12.5523 5 12 5Z" fill="currentColor"/>
</svg>
