<svg width="24" height="24" viewBox="0 0 24 24" fill="none" xmlns="http://www.w3.org/2000/svg">
<path d="M16 2.5H8C7.44772 2.5 7 2.94772 7 3.5C7 4.05228 7.44772 4.5 8 4.5H16C16.5523 4.5 17 4.05228 17 3.5C17 2.94772 16.5523 2.5 16 2.5Z" fill="currentColor"/>
<path d="M19 5.5H5C4.44772 5.5 4 5.94772 4 6.5C4 7.05228 4.44772 7.5 5 7.5H19C19.5523 7.5 20 7.05228 20 6.5C20 5.94772 19.5523 5.5 19 5.5Z" fill="currentColor"/>
<path fill-rule="evenodd" clip-rule="evenodd" d="M5 7.5H19V19.9403C19 20.8033 18.3815 21.5 17.6154 21.5H6.38462C5.61846 21.5 5 20.8033 5 19.9403V7.5ZM13 9.65385C13 9.05908 13.4477 8.57692 14 8.57692C14.5523 8.57692 15 9.05908 15 9.65385V17.5C15 18.0948 14.5523 18.5 14 18.5C13.4477 18.5 13 18.0948 13 17.5V9.65385ZM9 9.65385C9 9.05908 9.44772 8.57692 10 8.57692C10.5523 8.57692 11 9.05908 11 9.65385V17.5C11 18.0948 10.5523 18.5 10 18.5C9.44772 18.5 9 18.0948 9 17.5V9.65385Z" fill="currentColor"/>
</svg>
