<svg width="24" height="24" viewBox="0 0 24 24" fill="none" xmlns="http://www.w3.org/2000/svg">
<path d="M12.5863 7.00024L17.0003 11.4143L8.20737 20.2073C8.09773 20.3169 7.96382 20.3994 7.81675 20.4485L3.31675 21.9485C2.95754 22.0682 2.56114 21.9749 2.29331 21.7073C2.0255 21.4395 1.93238 21.0431 2.0521 20.6838L3.5521 16.1838L3.59507 16.0764C3.64418 15.9715 3.71098 15.8755 3.79331 15.7932L12.5863 7.00024ZM16.3695 3.22485C16.7623 2.90458 17.3413 2.92712 17.7074 3.29321L20.7074 6.29321C21.0976 6.68374 21.0977 7.31684 20.7074 7.70728L18.4144 10.0002L14.0003 5.58618L16.2933 3.29321L16.3695 3.22485Z" fill="currentColor"/>
</svg>
