<svg width="24" height="24" viewBox="0 0 24 24" fill="none" xmlns="http://www.w3.org/2000/svg">
<path d="M6.5 3.75V20.25" stroke="currentColor" stroke-width="2" stroke-linecap="round" stroke-linejoin="round"/>
<path d="M12 3.75V20.25" stroke="currentColor" stroke-width="2" stroke-linecap="round" stroke-linejoin="round"/>
<path d="M17.5 3.75V20.25" stroke="currentColor" stroke-width="2" stroke-linecap="round" stroke-linejoin="round"/>
<path d="M6.5 10C7.60457 10 8.5 9.10457 8.5 8C8.5 6.89543 7.60457 6 6.5 6C5.39543 6 4.5 6.89543 4.5 8C4.5 9.10457 5.39543 10 6.5 10Z" fill="currentColor" stroke="currentColor" stroke-width="2" stroke-linecap="round" stroke-linejoin="round"/>
<path d="M12 17C13.1046 17 14 16.1046 14 15C14 13.8954 13.1046 13 12 13C10.8954 13 10 13.8954 10 15C10 16.1046 10.8954 17 12 17Z" fill="currentColor" stroke="currentColor" stroke-width="2" stroke-linecap="round" stroke-linejoin="round"/>
<path d="M17.5 12.5C18.6046 12.5 19.5 11.6046 19.5 10.5C19.5 9.39543 18.6046 8.5 17.5 8.5C16.3954 8.5 15.5 9.39543 15.5 10.5C15.5 11.6046 16.3954 12.5 17.5 12.5Z" fill="currentColor" stroke="currentColor" stroke-width="2" stroke-linecap="round" stroke-linejoin="round"/>
</svg>
