<svg width="24" height="24" viewBox="0 0 24 24" fill="none" xmlns="http://www.w3.org/2000/svg">
<path d="M11.5 10C13.433 10 15 8.43299 15 6.5C15 4.567 13.433 3 11.5 3C9.567 3 8 4.567 8 6.5C8 8.43299 9.567 10 11.5 10Z" fill="currentColor" stroke="currentColor" stroke-width="2" stroke-linejoin="round"/>
<path d="M15.7695 13C15.96 13 16.1346 13.1085 16.2187 13.2793L17.1123 15.0928L19.1123 15.3848C19.3008 15.4123 19.4571 15.5453 19.5156 15.7266C19.5741 15.9078 19.5244 16.1067 19.3877 16.2393L17.9375 17.6445L18.2822 19.6348C18.3148 19.8227 18.2383 20.013 18.084 20.125C17.9296 20.237 17.7242 20.2514 17.5557 20.1621L15.7695 19.2148L13.9844 20.1621C13.8158 20.2514 13.6105 20.237 13.4561 20.125C13.3017 20.013 13.2253 19.8227 13.2578 19.6348L13.6006 17.6523L12.1602 16.3164C12.021 16.1874 11.967 15.9906 12.0205 15.8086C12.0742 15.6267 12.2263 15.4911 12.4131 15.458L14.4228 15.1016L15.3213 13.2793C15.4054 13.1086 15.5793 13.0002 15.7695 13Z" fill="currentColor" stroke="currentColor" stroke-linejoin="round"/>
<path d="M11.5 12C12.5218 12 13.4772 12.1911 14.334 12.541L13.4727 14.291L11.3066 14.7188C10.9509 14.7889 10.6608 15.0468 10.5488 15.3916C10.4371 15.7363 10.5211 16.1142 10.7676 16.3799L12.2725 18.001L11.9258 20H5.5C4.94773 20 4.50001 19.5523 4.5 19C4.5 16.9205 5.2093 15.1505 6.48828 13.9004C7.76383 12.6537 9.52784 12 11.5 12Z" fill="currentColor"/>
</svg>
