<svg width="24" height="24" viewBox="0 0 24 24" fill="none" xmlns="http://www.w3.org/2000/svg">
<path fill-rule="evenodd" clip-rule="evenodd" d="M3.75 4.75C3.75 4.19772 4.19772 3.75 4.75 3.75H12.0858C12.3511 3.75 12.6055 3.85535 12.7929 4.04289L20.2071 11.4571C20.5976 11.8476 20.5976 12.4808 20.2071 12.8713L12.8713 20.2071C12.4808 20.5976 11.8476 20.5976 11.4571 20.2071L4.04289 12.7929C3.85535 12.6055 3.75 12.3511 3.75 12.0858V4.75ZM8 10C9.10457 10 10 9.10457 10 8C10 6.89543 9.10457 6 8 6C6.89543 6 6 6.89543 6 8C6 9.10457 6.89543 10 8 10Z" fill="currentColor"/>
<path d="M3.75 4.75C3.75 4.19772 4.19772 3.75 4.75 3.75H12.0858C12.3511 3.75 12.6055 3.85535 12.7929 4.04289L20.2071 11.4571C20.5976 11.8476 20.5976 12.4808 20.2071 12.8713L12.8713 20.2071C12.4808 20.5976 11.8476 20.5976 11.4571 20.2071L4.04289 12.7929C3.85535 12.6055 3.75 12.3511 3.75 12.0858V4.75Z" stroke="currentColor" stroke-width="2" stroke-linejoin="round"/>
</svg>
