<svg width="24" height="24" viewBox="0 0 24 24" fill="none" xmlns="http://www.w3.org/2000/svg">
<g clip-path="url(#clip0_48_80)">
<path d="M2.62961 8.5L1.2245 7.97494L2.62961 8.5ZM2.62961 15.5L1.2245 16.0251L2.62961 15.5ZM2 12H3.5C3.5 10.9507 3.68946 9.94899 4.03471 9.02506L2.62961 8.5L1.2245 7.97494C0.755635 9.22968 0.5 10.5867 0.5 12H2ZM2.62961 8.5L4.03471 9.02506C5.24151 5.79556 8.35456 3.5 12 3.5V2V0.5C7.06238 0.5 2.85518 3.61111 1.2245 7.97494L2.62961 8.5ZM12 2V3.5C15.6454 3.5 18.7585 5.79556 19.9653 9.02506L21.3704 8.5L22.7755 7.97494C21.1448 3.61111 16.9376 0.5 12 0.5V2ZM21.3704 8.5L19.9653 9.02506C20.3105 9.94899 20.5 10.9507 20.5 12H22H23.5C23.5 10.5867 23.2444 9.22968 22.7755 7.97494L21.3704 8.5ZM2.62961 8.5V10C2.64205 10 2.65452 10 2.66701 10C2.6795 10 2.69201 10 2.70455 10C2.71709 10 2.72965 10 2.74223 10C2.75482 10 2.76743 10 2.78006 10C2.79269 10 2.80534 10 2.81802 10C2.8307 10 2.8434 10 2.85613 10C2.86885 10 2.8816 10 2.89437 10C2.90715 10 2.91994 10 2.93276 10C2.94558 10 2.95842 10 2.97128 10C2.98414 10 2.99703 10 3.00993 10C3.02284 10 3.03577 10 3.04873 10C3.06168 10 3.07466 10 3.08765 10C3.10065 10 3.11367 10 3.12671 10C3.13976 10 3.15282 10 3.16591 10C3.17899 10 3.1921 10 3.20523 10C3.21836 10 3.23152 10 3.24469 10C3.25786 10 3.27106 10 3.28428 10C3.29749 10 3.31073 10 3.32399 10C3.33725 10 3.35054 10 3.36384 10C3.37714 10 3.39047 10 3.40381 10C3.41716 10 3.43052 10 3.44391 10C3.4573 10 3.47071 10 3.48414 10C3.49757 10 3.51102 10 3.52449 10C3.53796 10 3.55145 10 3.56496 10C3.57848 10 3.59201 10 3.60556 10C3.61912 10 3.63269 10 3.64628 10C3.65988 10 3.67349 10 3.68713 10C3.70076 10 3.71442 10 3.72809 10C3.74177 10 3.75546 10 3.76918 10C3.78289 10 3.79662 10 3.81038 10C3.82413 10 3.83791 10 3.8517 10C3.86549 10 3.87931 10 3.89314 10C3.90697 10 3.92082 10 3.93469 10C3.94857 10 3.96246 10 3.97637 10C3.99028 10 4.0042 10 4.01815 10C4.0321 10 4.04607 10 4.06005 10C4.07404 10 4.08804 10 4.10206 10C4.11609 10 4.13013 10 4.14419 10C4.15825 10 4.17233 10 4.18643 10C4.20052 10 4.21464 10 4.22877 10C4.24291 10 4.25706 10 4.27123 10C4.2854 10 4.29959 10 4.3138 10C4.328 10 4.34223 10 4.35647 10C4.37071 10 4.38497 10 4.39925 10C4.41353 10 4.42782 10 4.44214 10C4.45645 10 4.47078 10 4.48513 10C4.49948 10 4.51384 10 4.52823 10C4.54261 10 4.55701 10 4.57143 10C4.58584 10 4.60028 10 4.61473 10C4.62918 10 4.64365 10 4.65814 10C4.67262 10 4.68712 10 4.70164 10C4.71616 10 4.7307 10 4.74525 10C4.7598 10 4.77437 10 4.78895 10C4.80354 10 4.81814 10 4.83276 10C4.84738 10 4.86201 10 4.87666 10C4.89131 10 4.90598 10 4.92066 10C4.93534 10 4.95004 10 4.96475 10C4.97947 10 4.9942 10 5.00894 10C5.02369 10 5.03845 10 5.05323 10C5.068 10 5.0828 10 5.0976 10C5.11241 10 5.12724 10 5.14207 10C5.15691 10 5.17177 10 5.18663 10C5.2015 10 5.21639 10 5.23129 10C5.24619 10 5.2611 10 5.27603 10C5.29096 10 5.3059 10 5.32086 10C5.33582 10 5.35079 10 5.36578 10C5.38077 10 5.39577 10 5.41078 10C5.4258 10 5.44083 10 5.45588 10C5.47092 10 5.48598 10 5.50106 10C5.51613 10 5.53122 10 5.54632 10C5.56142 10 5.57654 10 5.59166 10C5.60679 10 5.62194 10 5.63709 10C5.65225 10 5.66742 10 5.68261 10C5.69779 10 5.71299 10 5.7282 10C5.74341 10 5.75864 10 5.77387 10C5.78911 10 5.80436 10 5.81963 10C5.83489 10 5.85017 10 5.86546 10C5.88075 10 5.89605 10 5.91137 10C5.92668 10 5.94201 10 5.95735 10C5.9727 10 5.98805 10 6.00342 10C6.01878 10 6.03416 10 6.04955 10C6.06495 10 6.08035 10 6.09577 10C6.11118 10 6.12661 10 6.14205 10C6.15749 10 6.17295 10 6.18841 10C6.20388 10 6.21935 10 6.23484 10C6.25033 10 6.26583 10 6.28134 10C6.29685 10 6.31238 10 6.32791 10C6.34345 10 6.35899 10 6.37455 10C6.39011 10 6.40568 10 6.42126 10C6.43684 10 6.45243 10 6.46804 10C6.48364 10 6.49926 10 6.51488 10C6.53051 10 6.54614 10 6.56179 10C6.57744 10 6.59309 10 6.60876 10C6.62443 10 6.64011 10 6.6558 10C6.67149 10 6.68719 10 6.7029 10C6.71861 10 6.73433 10 6.75006 10C6.7658 10 6.78154 10 6.79729 10C6.81304 10 6.8288 10 6.84457 10C6.86034 10 6.87613 10 6.89192 10C6.90771 10 6.92351 10 6.93932 10C6.95513 10 6.97095 10 6.98678 10C7.00261 10 7.01845 10 7.0343 10C7.05015 10 7.06601 10 7.08188 10C7.09775 10 7.11362 10 7.12951 10C7.14539 10 7.16129 10 7.17719 10C7.1931 10 7.20901 10 7.22493 10C7.24085 10 7.25678 10 7.27272 10C7.28866 10 7.30461 10 7.32057 10C7.33652 10 7.35249 10 7.36846 10C7.38444 10 7.40042 10 7.41641 10C7.4324 10 7.4484 10 7.4644 10C7.48041 10 7.49642 10 7.51244 10C7.52847 10 7.5445 10 7.56054 10C7.57657 10 7.59262 10 7.60867 10C7.62473 10 7.64079 10 7.65686 10C7.67293 10 7.689 10 7.70509 10C7.72117 10 7.73726 10 7.75336 10C7.76946 10 7.78556 10 7.80167 10C7.81779 10 7.83391 10 7.85003 10C7.86616 10 7.88229 10 7.89843 10C7.91457 10 7.93072 10 7.94688 10C7.96303 10 7.97919 10 7.99536 10C8.01152 10 8.0277 10 8.04388 10C8.06006 10 8.07624 10 8.09243 10C8.10863 10 8.12483 10 8.14103 10C8.15724 10 8.17345 10 8.18966 10C8.20588 10 8.2221 10 8.23833 10C8.25456 10 8.27079 10 8.28703 10C8.30327 10 8.31952 10 8.33577 10C8.35202 10 8.36828 10 8.38454 10C8.4008 10 8.41707 10 8.43334 10C8.44961 10 8.46589 10 8.48217 10C8.49846 10 8.51475 10 8.53104 10C8.54733 10 8.56363 10 8.57993 10C8.59623 10 8.61254 10 8.62885 10C8.64517 10 8.66148 10 8.6778 10C8.69412 10 8.71045 10 8.72678 10C8.74311 10 8.75944 10 8.77578 10C8.79212 10 8.80846 10 8.82481 10C8.84116 10 8.85751 10 8.87386 10C8.89022 10 8.90658 10 8.92294 10C8.9393 10 8.95567 10 8.97204 10C8.98841 10 9.00478 10 9.02116 10C9.03754 10 9.05392 10 9.0703 10C9.08669 10 9.10307 10 9.11946 10C9.13585 10 9.15225 10 9.16865 10C9.18504 10 9.20144 10 9.21784 10C9.23425 10 9.25065 10 9.26706 10C9.28347 10 9.29988 10 9.3163 10C9.33271 10 9.34913 10 9.36555 10C9.38197 10 9.39839 10 9.41481 10C9.43123 10 9.44766 10 9.46409 10C9.48052 10 9.49695 10 9.51338 10C9.52981 10 9.54625 10 9.56269 10C9.57912 10 9.59556 10 9.612 10C9.62844 10 9.64489 10 9.66133 10C9.67777 10 9.69422 10 9.71067 10C9.72711 10 9.74356 10 9.76001 10C9.77646 10 9.79291 10 9.80936 10C9.82582 10 9.84227 10 9.85873 10C9.87518 10 9.89164 10 9.90809 10C9.92455 10 9.94101 10 9.95746 10C9.97392 10 9.99038 10 10.0068 10C10.0233 10 10.0398 10 10.0562 10C10.0727 10 10.0891 10 10.1056 10C10.1221 10 10.1385 10 10.155 10C10.1715 10 10.1879 10 10.2044 10C10.2208 10 10.2373 10 10.2538 10C10.2702 10 10.2867 10 10.3032 10C10.3196 10 10.3361 10 10.3525 10C10.369 10 10.3855 10 10.4019 10C10.4184 10 10.4348 10 10.4513 10C10.4678 10 10.4842 10 10.5007 10C10.5171 10 10.5336 10 10.5501 10C10.5665 10 10.583 10 10.5994 10C10.6159 10 10.6323 10 10.6488 10C10.6652 10 10.6817 10 10.6981 10C10.7146 10 10.731 10 10.7475 10C10.7639 10 10.7804 10 10.7968 10C10.8132 10 10.8297 10 10.8461 10C10.8626 10 10.879 10 10.8954 10C10.9119 10 10.9283 10 10.9447 10C10.9612 10 10.9776 10 10.994 10C11.0105 10 11.0269 10 11.0433 10C11.0597 10 11.0762 10 11.0926 10C11.109 10 11.1254 10 11.1418 10C11.1582 10 11.1746 10 11.191 10C11.2075 10 11.2239 10 11.2403 10C11.2567 10 11.2731 10 11.2895 10C11.3059 10 11.3222 10 11.3386 10C11.355 10 11.3714 10 11.3878 10C11.4042 10 11.4206 10 11.4369 10C11.4533 10 11.4697 10 11.486 10C11.5024 10 11.5188 10 11.5351 10C11.5515 10 11.5679 10 11.5842 10C11.6006 10 11.6169 10 11.6333 10C11.6496 10 11.6659 10 11.6823 10C11.6986 10 11.7149 10 11.7313 10C11.7476 10 11.7639 10 11.7802 10C11.7966 10 11.8129 10 11.8292 10C11.8455 10 11.8618 10 11.8781 10C11.8944 10 11.9107 10 11.927 10C11.9433 10 11.9596 10 11.9758 10C11.9921 10 12.0084 10 12.0247 10C12.0409 10 12.0572 10 12.0735 10C12.0897 10 12.106 10 12.1222 10C12.1385 10 12.1547 10 12.171 10C12.1872 10 12.2034 10 12.2197 10C12.2359 10 12.2521 10 12.2683 10C12.2845 10 12.3007 10 12.3169 10C12.3331 10 12.3493 10 12.3655 10C12.3817 10 12.3979 10 12.4141 10C12.4303 10 12.4464 10 12.4626 10C12.4787 10 12.4949 10 12.5111 10C12.5272 10 12.5434 10 12.5595 10C12.5756 10 12.5918 10 12.6079 10C12.624 10 12.6401 10 12.6562 10C12.6723 10 12.6884 10 12.7045 10C12.7206 10 12.7367 10 12.7528 10C12.7689 10 12.785 10 12.801 10C12.8171 10 12.8331 10 12.8492 10C12.8652 10 12.8813 10 12.8973 10C12.9134 10 12.9294 10 12.9454 10C12.9614 10 12.9774 10 12.9934 10C13.0094 10 13.0254 10 13.0414 10C13.0574 10 13.0734 10 13.0893 10C13.1053 10 13.1213 10 13.1372 10C13.1532 10 13.1691 10 13.1851 10C13.201 10 13.2169 10 13.2328 10C13.2488 10 13.2647 10 13.2806 10C13.2965 10 13.3124 10 13.3282 10C13.3441 10 13.36 10 13.3759 10C13.3917 10 13.4076 10 13.4234 10C13.4393 10 13.4551 10 13.4709 10C13.4867 10 13.5026 10 13.5184 10C13.5342 10 13.55 10 13.5658 10C13.5815 10 13.5973 10 13.6131 10C13.6289 10 13.6446 10 13.6604 10C13.6761 10 13.6918 10 13.7076 10C13.7233 10 13.739 10 13.7547 10C13.7704 10 13.7861 10 13.8018 10C13.8175 10 13.8332 10 13.8488 10C13.8645 10 13.8801 10 13.8958 10C13.9114 10 13.9271 10 13.9427 10C13.9583 10 13.9739 10 13.9895 10C14.0051 10 14.0207 10 14.0363 10C14.0518 10 14.0674 10 14.083 10C14.0985 10 14.1141 10 14.1296 10C14.1451 10 14.1606 10 14.1761 10C14.1917 10 14.2071 10 14.2226 10C14.2381 10 14.2536 10 14.269 10C14.2845 10 14.2999 10 14.3154 10C14.3308 10 14.3462 10 14.3617 10C14.3771 10 14.3925 10 14.4078 10C14.4232 10 14.4386 10 14.454 10C14.4693 10 14.4847 10 14.5 10C14.5154 10 14.5307 10 14.546 10C14.5613 10 14.5766 10 14.5919 10C14.6072 10 14.6224 10 14.6377 10C14.6529 10 14.6682 10 14.6834 10C14.6987 10 14.7139 10 14.7291 10C14.7443 10 14.7595 10 14.7747 10C14.7898 10 14.805 10 14.8201 10C14.8353 10 14.8504 10 14.8656 10C14.8807 10 14.8958 10 14.9109 10C14.926 10 14.9411 10 14.9561 10C14.9712 10 14.9862 10 15.0013 10C15.0163 10 15.0313 10 15.0464 10C15.0614 10 15.0764 10 15.0913 10C15.1063 10 15.1213 10 15.1362 10C15.1512 10 15.1661 10 15.1811 10C15.196 10 15.2109 10 15.2258 10C15.2407 10 15.2555 10 15.2704 10C15.2853 10 15.3001 10 15.3149 10C15.3298 10 15.3446 10 15.3594 10C15.3742 10 15.389 10 15.4037 10C15.4185 10 15.4333 10 15.448 10C15.4627 10 15.4775 10 15.4922 10C15.5069 10 15.5216 10 15.5363 10C15.5509 10 15.5656 10 15.5802 10C15.5949 10 15.6095 10 15.6241 10C15.6387 10 15.6533 10 15.6679 10C15.6825 10 15.697 10 15.7116 10C15.7261 10 15.7406 10 15.7552 10C15.7697 10 15.7842 10 15.7986 10C15.8131 10 15.8276 10 15.842 10C15.8565 10 15.8709 10 15.8853 10C15.8997 10 15.9141 10 15.9285 10C15.9429 10 15.9572 10 15.9715 10C15.9859 10 16.0002 10 16.0145 10C16.0288 10 16.0431 10 16.0574 10C16.0716 10 16.0859 10 16.1001 10C16.1144 10 16.1286 10 16.1428 10C16.157 10 16.1712 10 16.1853 10C16.1995 10 16.2136 10 16.2278 10C16.2419 10 16.256 10 16.2701 10C16.2842 10 16.2982 10 16.3123 10C16.3263 10 16.3404 10 16.3544 10C16.3684 10 16.3824 10 16.3964 10C16.4104 10 16.4243 10 16.4382 10C16.4522 10 16.4661 10 16.48 10C16.4939 10 16.5078 10 16.5217 10C16.5355 10 16.5494 10 16.5632 10C16.577 10 16.5908 10 16.6046 10C16.6184 10 16.6321 10 16.6459 10C16.6596 10 16.6734 10 16.6871 10C16.7008 10 16.7145 10 16.7281 10C16.7418 10 16.7554 10 16.7691 10C16.7827 10 16.7963 10 16.8099 10C16.8235 10 16.837 10 16.8506 10C16.8641 10 16.8776 10 16.8911 10C16.9046 10 16.9181 10 16.9316 10C16.945 10 16.9585 10 16.9719 10C16.9853 10 16.9987 10 17.0121 10C17.0255 10 17.0388 10 17.0522 10C17.0655 10 17.0788 10 17.0921 10C17.1054 10 17.1187 10 17.1319 10C17.1452 10 17.1584 10 17.1716 10C17.1848 10 17.198 10 17.2112 10C17.2243 10 17.2375 10 17.2506 10C17.2637 10 17.2768 10 17.2899 10C17.303 10 17.316 10 17.3291 10C17.3421 10 17.3551 10 17.3681 10C17.3811 10 17.394 10 17.407 10C17.4199 10 17.4328 10 17.4457 10C17.4586 10 17.4715 10 17.4844 10C17.4972 10 17.5101 10 17.5229 10C17.5357 10 17.5484 10 17.5612 10C17.574 10 17.5867 10 17.5994 10C17.6121 10 17.6248 10 17.6375 10C17.6502 10 17.6628 10 17.6754 10C17.6881 10 17.7006 10 17.7132 10C17.7258 10 17.7383 10 17.7509 10C17.7634 10 17.7759 10 17.7884 10C17.8009 10 17.8133 10 17.8257 10C17.8382 10 17.8506 10 17.863 10C17.8754 10 17.8877 10 17.9 10C17.9124 10 17.9247 10 17.937 10C17.9493 10 17.9615 10 17.9738 10C17.986 10 17.9982 10 18.0104 10C18.0226 10 18.0347 10 18.0469 10C18.059 10 18.0711 10 18.0832 10C18.0953 10 18.1074 10 18.1194 10C18.1314 10 18.1435 10 18.1554 10C18.1674 10 18.1794 10 18.1913 10C18.2033 10 18.2152 10 18.2271 10C18.2389 10 18.2508 10 18.2626 10C18.2745 10 18.2863 10 18.298 10C18.3098 10 18.3216 10 18.3333 10C18.345 10 18.3567 10 18.3684 10C18.3801 10 18.3918 10 18.4034 10C18.415 10 18.4266 10 18.4382 10C18.4497 10 18.4613 10 18.4728 10C18.4843 10 18.4958 10 18.5073 10C18.5188 10 18.5302 10 18.5416 10C18.553 10 18.5644 10 18.5758 10C18.5871 10 18.5984 10 18.6097 10C18.621 10 18.6323 10 18.6436 10C18.6548 10 18.666 10 18.6772 10C18.6884 10 18.6996 10 18.7107 10C18.7219 10 18.733 10 18.7441 10C18.7552 10 18.7662 10 18.7772 10C18.7883 10 18.7993 10 18.8102 10C18.8212 10 18.8322 10 18.8431 10C18.854 10 18.8649 10 18.8757 10C18.8866 10 18.8974 10 18.9082 10C18.919 10 18.9298 10 18.9405 10C18.9513 10 18.962 10 18.9727 10C18.9834 10 18.994 10 19.0047 10C19.0153 10 19.0259 10 19.0365 10C19.047 10 19.0576 10 19.0681 10C19.0786 10 19.0891 10 19.0995 10C19.11 10 19.1204 10 19.1308 10C19.1412 10 19.1516 10 19.1619 10C19.1723 10 19.1826 10 19.1928 10C19.2031 10 19.2134 10 19.2236 10C19.2338 10 19.244 10 19.2541 10C19.2643 10 19.2744 10 19.2845 10C19.2946 10 19.3047 10 19.3147 10C19.3248 10 19.3348 10 19.3448 10C19.3547 10 19.3647 10 19.3746 10C19.3845 10 19.3944 10 19.4042 10C19.4141 10 19.4239 10 19.4337 10C19.4435 10 19.4533 10 19.463 10C19.4727 10 19.4824 10 19.4921 10C19.5018 10 19.5114 10 19.521 10C19.5306 10 19.5402 10 19.5497 10C19.5593 10 19.5688 10 19.5782 10C19.5877 10 19.5972 10 19.6066 10C19.616 10 19.6254 10 19.6347 10C19.6441 10 19.6534 10 19.6627 10C19.672 10 19.6812 10 19.6905 10C19.6997 10 19.7089 10 19.718 10C19.7272 10 19.7363 10 19.7454 10C19.7545 10 19.7636 10 19.7726 10C19.7816 10 19.7906 10 19.7996 10C19.8085 10 19.8175 10 19.8264 10C19.8353 10 19.8441 10 19.853 10C19.8618 10 19.8706 10 19.8793 10C19.8881 10 19.8968 10 19.9055 10C19.9142 10 19.9229 10 19.9315 10C19.9402 10 19.9488 10 19.9573 10C19.9659 10 19.9744 10 19.9829 10C19.9914 10 19.9999 10 20.0083 10C20.0167 10 20.0251 10 20.0335 10C20.0419 10 20.0502 10 20.0585 10C20.0668 10 20.075 10 20.0832 10C20.0915 10 20.0997 10 20.1078 10C20.116 10 20.1241 10 20.1322 10C20.1403 10 20.1483 10 20.1563 10C20.1643 10 20.1723 10 20.1803 10C20.1882 10 20.1961 10 20.204 10C20.2119 10 20.2197 10 20.2275 10C20.2353 10 20.2431 10 20.2508 10C20.2586 10 20.2663 10 20.2739 10C20.2816 10 20.2892 10 20.2968 10C20.3044 10 20.312 10 20.3195 10C20.327 10 20.3345 10 20.342 10C20.3494 10 20.3568 10 20.3642 10C20.3716 10 20.3789 10 20.3862 10C20.3935 10 20.4008 10 20.408 10C20.4153 10 20.4225 10 20.4296 10C20.4368 10 20.4439 10 20.451 10C20.4581 10 20.4651 10 20.4721 10C20.4792 10 20.4861 10 20.4931 10C20.5 10 20.5069 10 20.5138 10C20.5206 10 20.5275 10 20.5343 10C20.5411 10 20.5478 10 20.5545 10C20.5612 10 20.5679 10 20.5746 10C20.5812 10 20.5878 10 20.5944 10C20.6009 10 20.6075 10 20.614 10C20.6204 10 20.6269 10 20.6333 10C20.6397 10 20.6461 10 20.6524 10C20.6588 10 20.6651 10 20.6714 10C20.6776 10 20.6838 10 20.69 10C20.6962 10 20.7024 10 20.7085 10C20.7146 10 20.7206 10 20.7267 10C20.7327 10 20.7387 10 20.7447 10C20.7506 10 20.7565 10 20.7624 10C20.7683 10 20.7741 10 20.7799 10C20.7857 10 20.7915 10 20.7972 10C20.8029 10 20.8086 10 20.8142 10C20.8199 10 20.8255 10 20.831 10C20.8366 10 20.8421 10 20.8476 10C20.8531 10 20.8585 10 20.8639 10C20.8693 10 20.8747 10 20.88 10C20.8853 10 20.8906 10 20.8959 10C20.9011 10 20.9063 10 20.9115 10C20.9166 10 20.9218 10 20.9269 10C20.9319 10 20.937 10 20.942 10C20.947 10 20.9519 10 20.9569 10C20.9618 10 20.9667 10 20.9715 10C20.9763 10 20.9811 10 20.9859 10C20.9907 10 20.9954 10 21 10C21.0047 10 21.0093 10 21.0139 10C21.0185 10 21.0231 10 21.0276 10C21.0321 10 21.0366 10 21.041 10C21.0454 10 21.0498 10 21.0542 10C21.0585 10 21.0628 10 21.0671 10C21.0713 10 21.0755 10 21.0797 10C21.0839 10 21.088 10 21.0921 10C21.0962 10 21.1003 10 21.1043 10C21.1083 10 21.1122 10 21.1162 10C21.1201 10 21.124 10 21.1278 10C21.1316 10 21.1354 10 21.1392 10C21.1429 10 21.1466 10 21.1503 10C21.154 10 21.1576 10 21.1612 10C21.1648 10 21.1683 10 21.1718 10C21.1753 10 21.1787 10 21.1822 10C21.1856 10 21.1889 10 21.1923 10C21.1956 10 21.1989 10 21.2021 10C21.2053 10 21.2085 10 21.2117 10C21.2148 10 21.2179 10 21.221 10C21.224 10 21.2271 10 21.23 10C21.233 10 21.2359 10 21.2388 10C21.2417 10 21.2445 10 21.2473 10C21.2501 10 21.2529 10 21.2556 10C21.2583 10 21.261 10 21.2636 10C21.2662 10 21.2688 10 21.2713 10C21.2738 10 21.2763 10 21.2787 10C21.2812 10 21.2836 10 21.2859 10C21.2883 10 21.2906 10 21.2928 10C21.2951 10 21.2973 10 21.2995 10C21.3016 10 21.3038 10 21.3058 10C21.3079 10 21.31 10 21.3119 10C21.3139 10 21.3159 10 21.3178 10C21.3197 10 21.3215 10 21.3233 10C21.3251 10 21.3269 10 21.3286 10C21.3303 10 21.332 10 21.3336 10C21.3352 10 21.3368 10 21.3383 10C21.3398 10 21.3413 10 21.3428 10C21.3442 10 21.3456 10 21.3469 10C21.3483 10 21.3496 10 21.3508 10C21.3521 10 21.3533 10 21.3544 10C21.3556 10 21.3567 10 21.3577 10C21.3588 10 21.3598 10 21.3608 10C21.3617 10 21.3627 10 21.3635 10C21.3644 10 21.3652 10 21.366 10C21.3668 10 21.3675 10 21.3682 10C21.3689 10 21.3695 10 21.3701 10C21.3707 10 21.3712 10 21.3717 10C21.3722 10 21.3727 10 21.3731 10C21.3735 10 21.3738 10 21.3741 10C21.3744 10 21.3747 10 21.3749 10C21.3751 10 21.3752 10 21.3753 10C21.3754 10 21.3755 10 21.3755 10C21.3755 8.5 21.3755 7 21.3754 7C21.3753 7 21.3752 7 21.375 7C21.3748 7 21.3746 7 21.3743 7C21.374 7 21.3737 7 21.3733 7C21.3729 7 21.3725 7 21.372 7C21.3715 7 21.371 7 21.3704 7V8.5V10C21.371 10 21.3715 10 21.372 10C21.3725 10 21.3729 10 21.3733 10C21.3737 10 21.374 10 21.3743 10C21.3746 10 21.3748 10 21.375 10C21.3752 10 21.3753 10 21.3754 10C21.3755 10 21.3755 8.5 21.3755 7C21.3755 7 21.3754 7 21.3753 7C21.3752 7 21.3751 7 21.3749 7C21.3747 7 21.3744 7 21.3741 7C21.3738 7 21.3735 7 21.3731 7C21.3727 7 21.3722 7 21.3717 7C21.3712 7 21.3707 7 21.3701 7C21.3695 7 21.3689 7 21.3682 7C21.3675 7 21.3668 7 21.366 7C21.3652 7 21.3644 7 21.3635 7C21.3627 7 21.3617 7 21.3608 7C21.3598 7 21.3588 7 21.3577 7C21.3567 7 21.3556 7 21.3544 7C21.3533 7 21.3521 7 21.3508 7C21.3496 7 21.3483 7 21.3469 7C21.3456 7 21.3442 7 21.3428 7C21.3413 7 21.3398 7 21.3383 7C21.3368 7 21.3352 7 21.3336 7C21.332 7 21.3303 7 21.3286 7C21.3269 7 21.3251 7 21.3233 7C21.3215 7 21.3197 7 21.3178 7C21.3159 7 21.3139 7 21.3119 7C21.31 7 21.3079 7 21.3058 7C21.3038 7 21.3016 7 21.2995 7C21.2973 7 21.2951 7 21.2928 7C21.2906 7 21.2883 7 21.2859 7C21.2836 7 21.2812 7 21.2787 7C21.2763 7 21.2738 7 21.2713 7C21.2688 7 21.2662 7 21.2636 7C21.261 7 21.2583 7 21.2556 7C21.2529 7 21.2501 7 21.2473 7C21.2445 7 21.2417 7 21.2388 7C21.2359 7 21.233 7 21.23 7C21.2271 7 21.224 7 21.221 7C21.2179 7 21.2148 7 21.2117 7C21.2085 7 21.2053 7 21.2021 7C21.1989 7 21.1956 7 21.1923 7C21.1889 7 21.1856 7 21.1822 7C21.1787 7 21.1753 7 21.1718 7C21.1683 7 21.1648 7 21.1612 7C21.1576 7 21.154 7 21.1503 7C21.1466 7 21.1429 7 21.1392 7C21.1354 7 21.1316 7 21.1278 7C21.124 7 21.1201 7 21.1162 7C21.1122 7 21.1083 7 21.1043 7C21.1003 7 21.0962 7 21.0921 7C21.088 7 21.0839 7 21.0797 7C21.0755 7 21.0713 7 21.0671 7C21.0628 7 21.0585 7 21.0542 7C21.0498 7 21.0454 7 21.041 7C21.0366 7 21.0321 7 21.0276 7C21.0231 7 21.0185 7 21.0139 7C21.0093 7 21.0047 7 21 7C20.9954 7 20.9907 7 20.9859 7C20.9811 7 20.9763 7 20.9715 7C20.9667 7 20.9618 7 20.9569 7C20.9519 7 20.947 7 20.942 7C20.937 7 20.9319 7 20.9269 7C20.9218 7 20.9166 7 20.9115 7C20.9063 7 20.9011 7 20.8959 7C20.8906 7 20.8853 7 20.88 7C20.8747 7 20.8693 7 20.8639 7C20.8585 7 20.8531 7 20.8476 7C20.8421 7 20.8366 7 20.831 7C20.8255 7 20.8199 7 20.8142 7C20.8086 7 20.8029 7 20.7972 7C20.7915 7 20.7857 7 20.7799 7C20.7741 7 20.7683 7 20.7624 7C20.7565 7 20.7506 7 20.7447 7C20.7387 7 20.7327 7 20.7267 7C20.7206 7 20.7146 7 20.7085 7C20.7024 7 20.6962 7 20.69 7C20.6838 7 20.6776 7 20.6714 7C20.6651 7 20.6588 7 20.6524 7C20.6461 7 20.6397 7 20.6333 7C20.6269 7 20.6204 7 20.614 7C20.6075 7 20.6009 7 20.5944 7C20.5878 7 20.5812 7 20.5746 7C20.5679 7 20.5612 7 20.5545 7C20.5478 7 20.5411 7 20.5343 7C20.5275 7 20.5206 7 20.5138 7C20.5069 7 20.5 7 20.4931 7C20.4861 7 20.4792 7 20.4721 7C20.4651 7 20.4581 7 20.451 7C20.4439 7 20.4368 7 20.4296 7C20.4225 7 20.4153 7 20.408 7C20.4008 7 20.3935 7 20.3862 7C20.3789 7 20.3716 7 20.3642 7C20.3568 7 20.3494 7 20.342 7C20.3345 7 20.327 7 20.3195 7C20.312 7 20.3044 7 20.2968 7C20.2892 7 20.2816 7 20.2739 7C20.2663 7 20.2586 7 20.2508 7C20.2431 7 20.2353 7 20.2275 7C20.2197 7 20.2119 7 20.204 7C20.1961 7 20.1882 7 20.1803 7C20.1723 7 20.1643 7 20.1563 7C20.1483 7 20.1403 7 20.1322 7C20.1241 7 20.116 7 20.1078 7C20.0997 7 20.0915 7 20.0832 7C20.075 7 20.0668 7 20.0585 7C20.0502 7 20.0419 7 20.0335 7C20.0251 7 20.0167 7 20.0083 7C19.9999 7 19.9914 7 19.9829 7C19.9744 7 19.9659 7 19.9573 7C19.9488 7 19.9402 7 19.9315 7C19.9229 7 19.9142 7 19.9055 7C19.8968 7 19.8881 7 19.8793 7C19.8706 7 19.8618 7 19.853 7C19.8441 7 19.8353 7 19.8264 7C19.8175 7 19.8085 7 19.7996 7C19.7906 7 19.7816 7 19.7726 7C19.7636 7 19.7545 7 19.7454 7C19.7363 7 19.7272 7 19.718 7C19.7089 7 19.6997 7 19.6905 7C19.6812 7 19.672 7 19.6627 7C19.6534 7 19.6441 7 19.6347 7C19.6254 7 19.616 7 19.6066 7C19.5972 7 19.5877 7 19.5782 7C19.5688 7 19.5593 7 19.5497 7C19.5402 7 19.5306 7 19.521 7C19.5114 7 19.5018 7 19.4921 7C19.4824 7 19.4727 7 19.463 7C19.4533 7 19.4435 7 19.4337 7C19.4239 7 19.4141 7 19.4042 7C19.3944 7 19.3845 7 19.3746 7C19.3647 7 19.3547 7 19.3448 7C19.3348 7 19.3248 7 19.3147 7C19.3047 7 19.2946 7 19.2845 7C19.2744 7 19.2643 7 19.2541 7C19.244 7 19.2338 7 19.2236 7C19.2134 7 19.2031 7 19.1928 7C19.1826 7 19.1723 7 19.1619 7C19.1516 7 19.1412 7 19.1308 7C19.1204 7 19.11 7 19.0995 7C19.0891 7 19.0786 7 19.0681 7C19.0576 7 19.047 7 19.0365 7C19.0259 7 19.0153 7 19.0047 7C18.994 7 18.9834 7 18.9727 7C18.962 7 18.9513 7 18.9405 7C18.9298 7 18.919 7 18.9082 7C18.8974 7 18.8866 7 18.8757 7C18.8649 7 18.854 7 18.8431 7C18.8322 7 18.8212 7 18.8102 7C18.7993 7 18.7883 7 18.7772 7C18.7662 7 18.7552 7 18.7441 7C18.733 7 18.7219 7 18.7107 7C18.6996 7 18.6884 7 18.6772 7C18.666 7 18.6548 7 18.6436 7C18.6323 7 18.621 7 18.6097 7C18.5984 7 18.5871 7 18.5758 7C18.5644 7 18.553 7 18.5416 7C18.5302 7 18.5188 7 18.5073 7C18.4958 7 18.4843 7 18.4728 7C18.4613 7 18.4497 7 18.4382 7C18.4266 7 18.415 7 18.4034 7C18.3918 7 18.3801 7 18.3684 7C18.3567 7 18.345 7 18.3333 7C18.3216 7 18.3098 7 18.298 7C18.2863 7 18.2745 7 18.2626 7C18.2508 7 18.2389 7 18.2271 7C18.2152 7 18.2033 7 18.1913 7C18.1794 7 18.1674 7 18.1554 7C18.1435 7 18.1314 7 18.1194 7C18.1074 7 18.0953 7 18.0832 7C18.0711 7 18.059 7 18.0469 7C18.0347 7 18.0226 7 18.0104 7C17.9982 7 17.986 7 17.9738 7C17.9615 7 17.9493 7 17.937 7C17.9247 7 17.9124 7 17.9 7C17.8877 7 17.8754 7 17.863 7C17.8506 7 17.8382 7 17.8257 7C17.8133 7 17.8009 7 17.7884 7C17.7759 7 17.7634 7 17.7509 7C17.7383 7 17.7258 7 17.7132 7C17.7006 7 17.6881 7 17.6754 7C17.6628 7 17.6502 7 17.6375 7C17.6248 7 17.6121 7 17.5994 7C17.5867 7 17.574 7 17.5612 7C17.5484 7 17.5357 7 17.5229 7C17.5101 7 17.4972 7 17.4844 7C17.4715 7 17.4586 7 17.4457 7C17.4328 7 17.4199 7 17.407 7C17.394 7 17.3811 7 17.3681 7C17.3551 7 17.3421 7 17.3291 7C17.316 7 17.303 7 17.2899 7C17.2768 7 17.2637 7 17.2506 7C17.2375 7 17.2243 7 17.2112 7C17.198 7 17.1848 7 17.1716 7C17.1584 7 17.1452 7 17.1319 7C17.1187 7 17.1054 7 17.0921 7C17.0788 7 17.0655 7 17.0522 7C17.0388 7 17.0255 7 17.0121 7C16.9987 7 16.9853 7 16.9719 7C16.9585 7 16.945 7 16.9316 7C16.9181 7 16.9046 7 16.8911 7C16.8776 7 16.8641 7 16.8506 7C16.837 7 16.8235 7 16.8099 7C16.7963 7 16.7827 7 16.7691 7C16.7554 7 16.7418 7 16.7281 7C16.7145 7 16.7008 7 16.6871 7C16.6734 7 16.6596 7 16.6459 7C16.6321 7 16.6184 7 16.6046 7C16.5908 7 16.577 7 16.5632 7C16.5494 7 16.5355 7 16.5217 7C16.5078 7 16.4939 7 16.48 7C16.4661 7 16.4522 7 16.4382 7C16.4243 7 16.4104 7 16.3964 7C16.3824 7 16.3684 7 16.3544 7C16.3404 7 16.3263 7 16.3123 7C16.2982 7 16.2842 7 16.2701 7C16.256 7 16.2419 7 16.2278 7C16.2136 7 16.1995 7 16.1853 7C16.1712 7 16.157 7 16.1428 7C16.1286 7 16.1144 7 16.1001 7C16.0859 7 16.0716 7 16.0574 7C16.0431 7 16.0288 7 16.0145 7C16.0002 7 15.9859 7 15.9715 7C15.9572 7 15.9429 7 15.9285 7C15.9141 7 15.8997 7 15.8853 7C15.8709 7 15.8565 7 15.842 7C15.8276 7 15.8131 7 15.7986 7C15.7842 7 15.7697 7 15.7552 7C15.7406 7 15.7261 7 15.7116 7C15.697 7 15.6825 7 15.6679 7C15.6533 7 15.6387 7 15.6241 7C15.6095 7 15.5949 7 15.5802 7C15.5656 7 15.5509 7 15.5363 7C15.5216 7 15.5069 7 15.4922 7C15.4775 7 15.4627 7 15.448 7C15.4333 7 15.4185 7 15.4037 7C15.389 7 15.3742 7 15.3594 7C15.3446 7 15.3298 7 15.3149 7C15.3001 7 15.2853 7 15.2704 7C15.2555 7 15.2407 7 15.2258 7C15.2109 7 15.196 7 15.1811 7C15.1661 7 15.1512 7 15.1362 7C15.1213 7 15.1063 7 15.0913 7C15.0764 7 15.0614 7 15.0464 7C15.0313 7 15.0163 7 15.0013 7C14.9862 7 14.9712 7 14.9561 7C14.9411 7 14.926 7 14.9109 7C14.8958 7 14.8807 7 14.8656 7C14.8504 7 14.8353 7 14.8201 7C14.805 7 14.7898 7 14.7747 7C14.7595 7 14.7443 7 14.7291 7C14.7139 7 14.6987 7 14.6834 7C14.6682 7 14.6529 7 14.6377 7C14.6224 7 14.6072 7 14.5919 7C14.5766 7 14.5613 7 14.546 7C14.5307 7 14.5154 7 14.5 7C14.4847 7 14.4693 7 14.454 7C14.4386 7 14.4232 7 14.4078 7C14.3925 7 14.3771 7 14.3617 7C14.3462 7 14.3308 7 14.3154 7C14.2999 7 14.2845 7 14.269 7C14.2536 7 14.2381 7 14.2226 7C14.2071 7 14.1917 7 14.1761 7C14.1606 7 14.1451 7 14.1296 7C14.1141 7 14.0985 7 14.083 7C14.0674 7 14.0518 7 14.0363 7C14.0207 7 14.0051 7 13.9895 7C13.9739 7 13.9583 7 13.9427 7C13.9271 7 13.9114 7 13.8958 7C13.8801 7 13.8645 7 13.8488 7C13.8332 7 13.8175 7 13.8018 7C13.7861 7 13.7704 7 13.7547 7C13.739 7 13.7233 7 13.7076 7C13.6918 7 13.6761 7 13.6604 7C13.6446 7 13.6289 7 13.6131 7C13.5973 7 13.5815 7 13.5658 7C13.55 7 13.5342 7 13.5184 7C13.5026 7 13.4867 7 13.4709 7C13.4551 7 13.4393 7 13.4234 7C13.4076 7 13.3917 7 13.3759 7C13.36 7 13.3441 7 13.3282 7C13.3124 7 13.2965 7 13.2806 7C13.2647 7 13.2488 7 13.2328 7C13.2169 7 13.201 7 13.1851 7C13.1691 7 13.1532 7 13.1372 7C13.1213 7 13.1053 7 13.0893 7C13.0734 7 13.0574 7 13.0414 7C13.0254 7 13.0094 7 12.9934 7C12.9774 7 12.9614 7 12.9454 7C12.9294 7 12.9134 7 12.8973 7C12.8813 7 12.8652 7 12.8492 7C12.8331 7 12.8171 7 12.801 7C12.785 7 12.7689 7 12.7528 7C12.7367 7 12.7206 7 12.7045 7C12.6884 7 12.6723 7 12.6562 7C12.6401 7 12.624 7 12.6079 7C12.5918 7 12.5756 7 12.5595 7C12.5434 7 12.5272 7 12.5111 7C12.4949 7 12.4787 7 12.4626 7C12.4464 7 12.4303 7 12.4141 7C12.3979 7 12.3817 7 12.3655 7C12.3493 7 12.3331 7 12.3169 7C12.3007 7 12.2845 7 12.2683 7C12.2521 7 12.2359 7 12.2197 7C12.2034 7 12.1872 7 12.171 7C12.1547 7 12.1385 7 12.1222 7C12.106 7 12.0897 7 12.0735 7C12.0572 7 12.0409 7 12.0247 7C12.0084 7 11.9921 7 11.9758 7C11.9596 7 11.9433 7 11.927 7C11.9107 7 11.8944 7 11.8781 7C11.8618 7 11.8455 7 11.8292 7C11.8129 7 11.7966 7 11.7802 7C11.7639 7 11.7476 7 11.7313 7C11.7149 7 11.6986 7 11.6823 7C11.6659 7 11.6496 7 11.6333 7C11.6169 7 11.6006 7 11.5842 7C11.5679 7 11.5515 7 11.5351 7C11.5188 7 11.5024 7 11.486 7C11.4697 7 11.4533 7 11.4369 7C11.4206 7 11.4042 7 11.3878 7C11.3714 7 11.355 7 11.3386 7C11.3222 7 11.3059 7 11.2895 7C11.2731 7 11.2567 7 11.2403 7C11.2239 7 11.2075 7 11.191 7C11.1746 7 11.1582 7 11.1418 7C11.1254 7 11.109 7 11.0926 7C11.0762 7 11.0597 7 11.0433 7C11.0269 7 11.0105 7 10.994 7C10.9776 7 10.9612 7 10.9447 7C10.9283 7 10.9119 7 10.8954 7C10.879 7 10.8626 7 10.8461 7C10.8297 7 10.8132 7 10.7968 7C10.7804 7 10.7639 7 10.7475 7C10.731 7 10.7146 7 10.6981 7C10.6817 7 10.6652 7 10.6488 7C10.6323 7 10.6159 7 10.5994 7C10.583 7 10.5665 7 10.5501 7C10.5336 7 10.5171 7 10.5007 7C10.4842 7 10.4678 7 10.4513 7C10.4348 7 10.4184 7 10.4019 7C10.3855 7 10.369 7 10.3525 7C10.3361 7 10.3196 7 10.3032 7C10.2867 7 10.2702 7 10.2538 7C10.2373 7 10.2208 7 10.2044 7C10.1879 7 10.1715 7 10.155 7C10.1385 7 10.1221 7 10.1056 7C10.0891 7 10.0727 7 10.0562 7C10.0398 7 10.0233 7 10.0068 7C9.99038 7 9.97392 7 9.95746 7C9.94101 7 9.92455 7 9.90809 7C9.89164 7 9.87518 7 9.85873 7C9.84227 7 9.82582 7 9.80936 7C9.79291 7 9.77646 7 9.76001 7C9.74356 7 9.72711 7 9.71067 7C9.69422 7 9.67777 7 9.66133 7C9.64489 7 9.62844 7 9.612 7C9.59556 7 9.57912 7 9.56269 7C9.54625 7 9.52981 7 9.51338 7C9.49695 7 9.48052 7 9.46409 7C9.44766 7 9.43123 7 9.41481 7C9.39839 7 9.38197 7 9.36555 7C9.34913 7 9.33271 7 9.3163 7C9.29988 7 9.28347 7 9.26706 7C9.25065 7 9.23425 7 9.21784 7C9.20144 7 9.18504 7 9.16865 7C9.15225 7 9.13585 7 9.11946 7C9.10307 7 9.08669 7 9.0703 7C9.05392 7 9.03754 7 9.02116 7C9.00478 7 8.98841 7 8.97204 7C8.95567 7 8.9393 7 8.92294 7C8.90658 7 8.89022 7 8.87386 7C8.85751 7 8.84116 7 8.82481 7C8.80846 7 8.79212 7 8.77578 7C8.75944 7 8.74311 7 8.72678 7C8.71045 7 8.69412 7 8.6778 7C8.66148 7 8.64517 7 8.62885 7C8.61254 7 8.59623 7 8.57993 7C8.56363 7 8.54733 7 8.53104 7C8.51475 7 8.49846 7 8.48217 7C8.46589 7 8.44961 7 8.43334 7C8.41707 7 8.4008 7 8.38454 7C8.36828 7 8.35202 7 8.33577 7C8.31952 7 8.30327 7 8.28703 7C8.27079 7 8.25456 7 8.23833 7C8.2221 7 8.20588 7 8.18966 7C8.17345 7 8.15724 7 8.14103 7C8.12483 7 8.10863 7 8.09243 7C8.07624 7 8.06006 7 8.04388 7C8.0277 7 8.01152 7 7.99536 7C7.97919 7 7.96303 7 7.94688 7C7.93072 7 7.91457 7 7.89843 7C7.88229 7 7.86616 7 7.85003 7C7.83391 7 7.81779 7 7.80167 7C7.78556 7 7.76946 7 7.75336 7C7.73726 7 7.72117 7 7.70509 7C7.689 7 7.67293 7 7.65686 7C7.64079 7 7.62473 7 7.60867 7C7.59262 7 7.57657 7 7.56054 7C7.5445 7 7.52847 7 7.51244 7C7.49642 7 7.48041 7 7.4644 7C7.4484 7 7.4324 7 7.41641 7C7.40042 7 7.38444 7 7.36846 7C7.35249 7 7.33652 7 7.32057 7C7.30461 7 7.28866 7 7.27272 7C7.25678 7 7.24085 7 7.22493 7C7.20901 7 7.1931 7 7.17719 7C7.16129 7 7.14539 7 7.12951 7C7.11362 7 7.09775 7 7.08188 7C7.06601 7 7.05015 7 7.0343 7C7.01845 7 7.00261 7 6.98678 7C6.97095 7 6.95513 7 6.93932 7C6.92351 7 6.90771 7 6.89192 7C6.87613 7 6.86034 7 6.84457 7C6.8288 7 6.81304 7 6.79729 7C6.78154 7 6.7658 7 6.75006 7C6.73433 7 6.71861 7 6.7029 7C6.68719 7 6.67149 7 6.6558 7C6.64011 7 6.62443 7 6.60876 7C6.59309 7 6.57744 7 6.56179 7C6.54614 7 6.53051 7 6.51488 7C6.49926 7 6.48364 7 6.46804 7C6.45243 7 6.43684 7 6.42126 7C6.40568 7 6.39011 7 6.37455 7C6.35899 7 6.34345 7 6.32791 7C6.31238 7 6.29685 7 6.28134 7C6.26583 7 6.25033 7 6.23484 7C6.21935 7 6.20388 7 6.18841 7C6.17295 7 6.15749 7 6.14205 7C6.12661 7 6.11118 7 6.09577 7C6.08035 7 6.06495 7 6.04955 7C6.03416 7 6.01878 7 6.00342 7C5.98805 7 5.9727 7 5.95735 7C5.94201 7 5.92668 7 5.91137 7C5.89605 7 5.88075 7 5.86546 7C5.85017 7 5.83489 7 5.81963 7C5.80436 7 5.78911 7 5.77387 7C5.75864 7 5.74341 7 5.7282 7C5.71299 7 5.69779 7 5.68261 7C5.66742 7 5.65225 7 5.63709 7C5.62194 7 5.60679 7 5.59166 7C5.57654 7 5.56142 7 5.54632 7C5.53122 7 5.51613 7 5.50106 7C5.48598 7 5.47092 7 5.45588 7C5.44083 7 5.4258 7 5.41078 7C5.39577 7 5.38077 7 5.36578 7C5.35079 7 5.33582 7 5.32086 7C5.3059 7 5.29096 7 5.27603 7C5.2611 7 5.24619 7 5.23129 7C5.21639 7 5.2015 7 5.18663 7C5.17177 7 5.15691 7 5.14207 7C5.12724 7 5.11241 7 5.0976 7C5.0828 7 5.068 7 5.05323 7C5.03845 7 5.02369 7 5.00894 7C4.9942 7 4.97947 7 4.96475 7C4.95004 7 4.93534 7 4.92066 7C4.90598 7 4.89131 7 4.87666 7C4.86201 7 4.84738 7 4.83276 7C4.81814 7 4.80354 7 4.78895 7C4.77437 7 4.7598 7 4.74525 7C4.7307 7 4.71616 7 4.70164 7C4.68712 7 4.67262 7 4.65814 7C4.64365 7 4.62918 7 4.61473 7C4.60028 7 4.58584 7 4.57143 7C4.55701 7 4.54261 7 4.52823 7C4.51384 7 4.49948 7 4.48513 7C4.47078 7 4.45645 7 4.44214 7C4.42782 7 4.41353 7 4.39925 7C4.38497 7 4.37071 7 4.35647 7C4.34223 7 4.328 7 4.3138 7C4.29959 7 4.2854 7 4.27123 7C4.25706 7 4.24291 7 4.22877 7C4.21464 7 4.20052 7 4.18643 7C4.17233 7 4.15825 7 4.14419 7C4.13013 7 4.11609 7 4.10206 7C4.08804 7 4.07404 7 4.06005 7C4.04607 7 4.0321 7 4.01815 7C4.0042 7 3.99028 7 3.97637 7C3.96246 7 3.94857 7 3.93469 7C3.92082 7 3.90697 7 3.89314 7C3.87931 7 3.86549 7 3.8517 7C3.83791 7 3.82413 7 3.81038 7C3.79662 7 3.78289 7 3.76918 7C3.75546 7 3.74177 7 3.72809 7C3.71442 7 3.70076 7 3.68713 7C3.67349 7 3.65988 7 3.64628 7C3.63269 7 3.61912 7 3.60556 7C3.59201 7 3.57848 7 3.56496 7C3.55145 7 3.53796 7 3.52449 7C3.51102 7 3.49757 7 3.48414 7C3.47071 7 3.4573 7 3.44391 7C3.43052 7 3.41716 7 3.40381 7C3.39047 7 3.37714 7 3.36384 7C3.35054 7 3.33725 7 3.32399 7C3.31073 7 3.29749 7 3.28428 7C3.27106 7 3.25786 7 3.24469 7C3.23152 7 3.21836 7 3.20523 7C3.1921 7 3.17899 7 3.16591 7C3.15282 7 3.13976 7 3.12671 7C3.11367 7 3.10065 7 3.08765 7C3.07466 7 3.06168 7 3.04873 7C3.03577 7 3.02284 7 3.00993 7C2.99703 7 2.98414 7 2.97128 7C2.95842 7 2.94558 7 2.93276 7C2.91994 7 2.90715 7 2.89437 7C2.8816 7 2.86885 7 2.85613 7C2.8434 7 2.8307 7 2.81802 7C2.80534 7 2.79269 7 2.78006 7C2.76743 7 2.75482 7 2.74223 7C2.72965 7 2.71709 7 2.70455 7C2.69201 7 2.6795 7 2.66701 7C2.65452 7 2.64205 7 2.62961 7V8.5ZM12 22V20.5C8.35456 20.5 5.24151 18.2044 4.03471 14.9749L2.62961 15.5L1.2245 16.0251C2.85518 20.3889 7.06238 23.5 12 23.5V22ZM2.62961 15.5L4.03471 14.9749C3.68946 14.051 3.5 13.0493 3.5 12H2H0.5C0.5 13.4133 0.755635 14.7703 1.2245 16.0251L2.62961 15.5ZM22 12H20.5C20.5 13.0493 20.3105 14.051 19.9653 14.9749L21.3704 15.5L22.7755 16.0251C23.2444 14.7703 23.5 13.4133 23.5 12H22ZM21.3704 15.5L19.9653 14.9749C18.7585 18.2044 15.6454 20.5 12 20.5V22V23.5C16.9376 23.5 21.1448 20.3889 22.7755 16.0251L21.3704 15.5ZM2.62961 15.5L2.62961 17L21.3704 17V15.5V14L2.62961 14L2.62961 15.5ZM11 2C9.65836 1.32918 9.65815 1.32959 9.65794 1.33001C9.65786 1.33017 9.65764 1.33061 9.65748 1.33094C9.65716 1.33159 9.65681 1.3323 9.65642 1.33307C9.65565 1.33461 9.65477 1.3364 9.65376 1.33844C9.65175 1.34251 9.64926 1.34757 9.64631 1.3536C9.64042 1.36567 9.63269 1.38166 9.62325 1.40149C9.60436 1.44115 9.57862 1.49622 9.54701 1.56621C9.4838 1.70618 9.39706 1.90598 9.29479 2.16166C9.09033 2.6728 8.82318 3.40879 8.55771 4.33792C8.02728 6.19445 7.5 8.83468 7.5 12H9H10.5C10.5 9.16532 10.9727 6.80555 11.4423 5.16208C11.6768 4.34121 11.9097 3.7022 12.0802 3.27584C12.1654 3.06277 12.235 2.9032 12.2811 2.80097C12.3042 2.74988 12.3214 2.71315 12.3318 2.69129C12.337 2.68036 12.3405 2.67314 12.3422 2.66971C12.343 2.668 12.3434 2.66722 12.3433 2.66741C12.3433 2.6675 12.3431 2.66783 12.3428 2.6684C12.3427 2.66868 12.3425 2.66902 12.3423 2.66943C12.3422 2.66963 12.3421 2.66998 12.342 2.67008C12.3418 2.67044 12.3416 2.67082 11 2ZM9 12H7.5C7.5 15.1653 8.02728 17.8055 8.55771 19.6621C8.82318 20.5912 9.09033 21.3272 9.29479 21.8383C9.39706 22.094 9.4838 22.2938 9.54701 22.4338C9.57862 22.5038 9.60436 22.5589 9.62325 22.5985C9.63269 22.6183 9.64042 22.6343 9.64631 22.6464C9.64926 22.6524 9.65175 22.6575 9.65376 22.6616C9.65477 22.6636 9.65565 22.6654 9.65642 22.6669C9.65681 22.6677 9.65716 22.6684 9.65748 22.6691C9.65764 22.6694 9.65786 22.6698 9.65794 22.67C9.65815 22.6704 9.65836 22.6708 11 22C12.3416 21.3292 12.3418 21.3296 12.342 21.3299C12.3421 21.33 12.3422 21.3304 12.3423 21.3306C12.3425 21.331 12.3427 21.3313 12.3428 21.3316C12.3431 21.3322 12.3433 21.3325 12.3433 21.3326C12.3434 21.3328 12.343 21.332 12.3422 21.3303C12.3405 21.3269 12.337 21.3196 12.3318 21.3087C12.3214 21.2868 12.3042 21.2501 12.2811 21.199C12.235 21.0968 12.1654 20.9372 12.0802 20.7242C11.9097 20.2978 11.6768 19.6588 11.4423 18.8379C10.9727 17.1945 10.5 14.8347 10.5 12H9ZM13 2C11.6584 2.67082 11.6582 2.67044 11.658 2.67008C11.6579 2.66998 11.6578 2.66963 11.6577 2.66943C11.6575 2.66902 11.6573 2.66868 11.6572 2.6684C11.6569 2.66783 11.6567 2.6675 11.6567 2.66741C11.6566 2.66722 11.657 2.668 11.6578 2.66971C11.6595 2.67314 11.663 2.68036 11.6682 2.69129C11.6786 2.71315 11.6958 2.74988 11.7189 2.80097C11.765 2.9032 11.8346 3.06277 11.9198 3.27584C12.0903 3.7022 12.3232 4.34121 12.5577 5.16208C13.0273 6.80555 13.5 9.16532 13.5 12H15H16.5C16.5 8.83468 15.9727 6.19445 15.4423 4.33792C15.1768 3.40879 14.9097 2.6728 14.7052 2.16166C14.6029 1.90598 14.5162 1.70618 14.453 1.56621C14.4214 1.49622 14.3956 1.44115 14.3768 1.40149C14.3673 1.38166 14.3596 1.36567 14.3537 1.3536C14.3507 1.34757 14.3483 1.34251 14.3462 1.33844C14.3452 1.3364 14.3443 1.33461 14.3436 1.33307C14.3432 1.3323 14.3428 1.33159 14.3425 1.33094C14.3424 1.33061 14.3421 1.33017 14.3421 1.33001C14.3418 1.32959 14.3416 1.32918 13 2ZM15 12H13.5C13.5 14.8347 13.0273 17.1945 12.5577 18.8379C12.3232 19.6588 12.0903 20.2978 11.9198 20.7242C11.8346 20.9372 11.765 21.0968 11.7189 21.199C11.6958 21.2501 11.6786 21.2868 11.6682 21.3087C11.663 21.3196 11.6595 21.3269 11.6578 21.3303C11.657 21.332 11.6566 21.3328 11.6567 21.3326C11.6567 21.3325 11.6569 21.3322 11.6572 21.3316C11.6573 21.3313 11.6575 21.331 11.6577 21.3306C11.6578 21.3304 11.6579 21.33 11.658 21.3299C11.6582 21.3296 11.6584 21.3292 13 22C14.3416 22.6708 14.3418 22.6704 14.3421 22.67C14.3421 22.6698 14.3424 22.6694 14.3425 22.6691C14.3428 22.6684 14.3432 22.6677 14.3436 22.6669C14.3443 22.6654 14.3452 22.6636 14.3462 22.6616C14.3483 22.6575 14.3507 22.6524 14.3537 22.6464C14.3596 22.6343 14.3673 22.6183 14.3768 22.5985C14.3956 22.5589 14.4214 22.5038 14.453 22.4338C14.5162 22.2938 14.6029 22.094 14.7052 21.8383C14.9097 21.3272 15.1768 20.5912 15.4423 19.6621C15.9727 17.8055 16.5 15.1653 16.5 12H15Z" fill="currentColor"/>
</g>
<defs>
<clipPath id="clip0_48_80">
<rect width="24" height="24"/>
</clipPath>
</defs>
</svg>
