<svg width="24" height="24" viewBox="0 0 24 24" fill="none" xmlns="http://www.w3.org/2000/svg">
<path d="M3.14473 21.625V10.555H2.20473C1.04473 10.555 0.554726 9.075 1.49473 8.385L10.9347 1.465C11.7847 0.845 12.9347 0.845 13.7847 1.465L23.2247 8.385C24.1647 9.075 23.6747 10.555 22.5147 10.555H21.5747V21.625C21.5747 22.285 21.0347 22.825 20.3747 22.825H17.1547C16.4947 22.825 15.9547 22.285 15.9547 21.625V15.915C15.9547 15.255 15.4147 14.715 14.7547 14.715H9.99473C9.33473 14.715 8.79473 15.255 8.79473 15.915V21.625C8.79473 22.285 8.25473 22.825 7.59473 22.825H4.34473C3.68473 22.825 3.14473 22.285 3.14473 21.625Z" fill="currentColor"/>
</svg>
