<svg width="24" height="24" viewBox="0 0 24 24" fill="none" xmlns="http://www.w3.org/2000/svg">
<path d="M3.14 21.22V10.15H2.2C1.04 10.15 0.55 8.67 1.49 7.98L10.93 1.06C11.78 0.44 12.93 0.44 13.78 1.06L23.22 7.98C24.16 8.67 23.67 10.15 22.51 10.15H21.57V21.22C21.57 21.88 21.03 22.42 20.37 22.42H17.15C16.49 22.42 15.95 21.88 15.95 21.22V15.51C15.95 14.85 15.41 14.31 14.75 14.31H9.99C9.33 14.31 8.79 14.85 8.79 15.51V21.22C8.79 21.88 8.25 22.42 7.59 22.42H4.34C3.68 22.42 3.14 21.88 3.14 21.22Z" fill="currentColor"/>
</svg>