<svg width="24" height="24" viewBox="0 0 24 24" fill="currentColor" xmlns="http://www.w3.org/2000/svg">
<path fill-rule="evenodd" clip-rule="evenodd" d="M4 5C4 3.9 4.9 3 6 3H18C19.1 3 20 3.9 20 5V15C20 16.1 19.1 17 18 17H10.1514C10.0527 17 9.95617 17.0292 9.87404 17.084L6.27735 19.4818C5.94507 19.7033 5.5 19.4651 5.5 19.0657V17.5C5.5 17.2239 5.26955 17.007 5.0105 16.9114C4.43471 16.6988 4 16.1304 4 15.5V5ZM8 7H16C16.2652 7 16.5196 7.10536 16.7071 7.29289C16.8946 7.48043 17 7.73478 17 8C17 8.26522 16.8946 8.51957 16.7071 8.70711C16.5196 8.89464 16.2652 9 16 9H8C7.73478 9 7.48043 8.89464 7.29289 8.70711C7.10536 8.51957 7 8.26522 7 8C7 7.73478 7.10536 7.48043 7.29289 7.29289C7.48043 7.10536 7.73478 7 8 7ZM8 11H13C13.2652 11 13.5196 11.10536 13.7071 11.29289C13.8946 11.48043 14 11.73478 14 12C14 12.26522 13.8946 12.51957 13.7071 12.70711C13.5196 12.89464 13.2652 13 13 13H8C7.73478 13 7.48043 12.89464 7.29289 12.70711C7.10536 12.51957 7 12.26522 7 12C7 11.73478 7.10536 11.48043 7.29289 11.29289C7.48043 11.10536 7.73478 11 8 11Z" fill="currentColor"/>
</svg>
