<svg width="24" height="24" viewBox="0 0 24 24" fill="currentColor" xmlns="http://www.w3.org/2000/svg">
<path fill-rule="evenodd" clip-rule="evenodd" d="M4 5.5C4 4.4 4.9 3.5 6 3.5H18C19.1 3.5 20 4.4 20 5.5V15.5C20 16.6 19.1 17.5 18 17.5H10.1514C10.0527 17.5 9.95617 17.5292 9.87404 17.584L6.27735 19.9818C5.94507 20.2033 5.5 19.9651 5.5 19.5657V18C5.5 17.7239 5.26955 17.507 5.0105 17.4114C4.43471 17.1988 4 16.6304 4 16V5.5ZM8 7.5H16C16.2652 7.5 16.5196 7.60536 16.7071 7.79289C16.8946 7.98043 17 8.23478 17 8.5C17 8.76522 16.8946 9.01957 16.7071 9.20711C16.5196 9.39464 16.2652 9.5 16 9.5H8C7.73478 9.5 7.48043 9.39464 7.29289 9.20711C7.10536 9.01957 7 8.76522 7 8.5C7 8.23478 7.10536 7.98043 7.29289 7.79289C7.48043 7.60536 7.73478 7.5 8 7.5ZM8 11.5H13C13.2652 11.5 13.5196 11.6054 13.7071 11.7929C13.8946 11.9804 14 12.2348 14 12.5C14 12.7652 13.8946 13.0196 13.7071 13.2071C13.5196 13.3946 13.2652 13.5 13 13.5H8C7.73478 13.5 7.48043 13.3946 7.29289 13.2071C7.10536 13.0196 7 12.7652 7 12.5C7 12.2348 7.10536 11.9804 7.29289 11.7929C7.48043 11.6054 7.73478 11.5 8 11.5Z" fill="currentColor"/>
</svg>
