<svg width="24" height="24" viewBox="0 0 24 24" fill="none" xmlns="http://www.w3.org/2000/svg">
<path d="M4 12C4 11.0059 4.82655 10.2 5.84615 10.2C6.86576 10.2 7.69231 11.0059 7.69231 12V19.2C7.69231 20.1941 6.86576 21 5.84615 21C4.82655 21 4 20.1941 4 19.2V12Z" fill="currentColor"/>
<path d="M10.1538 4.8C10.1538 3.80589 10.9804 3 12 3C13.0196 3 13.8462 3.80589 13.8462 4.8V19.2C13.8462 20.1941 13.0196 21 12 21C10.9804 21 10.1538 20.1941 10.1538 19.2V4.8Z" fill="currentColor"/>
<path d="M16.3077 9.6C16.3077 8.60589 17.1342 7.8 18.1538 7.8C19.1734 7.8 20 8.60589 20 9.6V19.2C20 20.1941 19.1734 21 18.1538 21C17.1342 21 16.3077 20.1941 16.3077 19.2V9.6Z" fill="currentColor"/>
<path d="M4 12C4 11.0059 4.82655 10.2 5.84615 10.2C6.86576 10.2 7.69231 11.0059 7.69231 12V19.2C7.69231 20.1941 6.86576 21 5.84615 21C4.82655 21 4 20.1941 4 19.2V12Z" stroke="currentColor" stroke-width="1"/>
<path d="M10.1538 4.8C10.1538 3.80589 10.9804 3 12 3C13.0196 3 13.8462 3.80589 13.8462 4.8V19.2C13.8462 20.1941 13.0196 21 12 21C10.9804 21 10.1538 20.1941 10.1538 19.2V4.8Z" stroke="currentColor" stroke-width="1"/>
<path d="M16.3077 9.6C16.3077 8.60589 17.1342 7.8 18.1538 7.8C19.1734 7.8 20 8.60589 20 9.6V19.2C20 20.1941 19.1734 21 18.1538 21C17.1342 21 16.3077 20.1941 16.3077 19.2V9.6Z" stroke="currentColor" stroke-width="1"/>
</svg>
