<svg width="24" height="24" viewBox="0 0 24 24" fill="none" xmlns="http://www.w3.org/2000/svg">
<path d="M11.5 5.5C12.3284 5.5 13 4.82843 13 4C13 3.17157 12.3284 2.5 11.5 2.5V4V5.5ZM21.5 12C21.5 11.1716 20.8284 10.5 20 10.5C19.1716 10.5 18.5 11.1716 18.5 12H20H21.5ZM15.5 2.5C14.6716 2.5 14 3.17157 14 4C14 4.82843 14.6716 5.5 15.5 5.5V4V2.5ZM18.5 8.5C18.5 9.32843 19.1716 10 20 10C20.8284 10 21.5 9.32843 21.5 8.5H20H18.5ZM8.43934 13.4393C7.85355 14.0251 7.85355 14.9749 8.43934 15.5607C9.02513 16.1464 9.97487 16.1464 10.5607 15.5607L9.5 14.5L8.43934 13.4393ZM4 6H2.5V18H4H5.5V6H4ZM6 20V21.5H18V20V18.5H6V20ZM6 4V5.5H11.5V4V2.5H6V4ZM20 18H21.5V12H20H18.5V18H20ZM18 20V21.5C19.933 21.5 21.5 19.933 21.5 18H20H18.5C18.5 18.2761 18.2761 18.5 18 18.5V20ZM4 18H2.5C2.5 19.933 4.067 21.5 6 21.5V20V18.5C5.72386 18.5 5.5 18.2761 5.5 18H4ZM4 6H5.5C5.5 5.72386 5.72386 5.5 6 5.5V4V2.5C4.067 2.5 2.5 4.067 2.5 6H4ZM15.5 4V5.5H18.5V4V2.5H15.5V4ZM20 5.5H18.5V8.5H20H21.5V5.5H20ZM18.5 4V5.5H20H21.5C21.5 3.84315 20.1569 2.5 18.5 2.5V4ZM20 4L18.9393 2.93934L8.43934 13.4393L9.5 14.5L10.5607 15.5607L21.0607 5.06066L20 4Z" fill="currentColor"/>
</svg>
