<svg width="24" height="24" viewBox="0 0 24 24" fill="none" xmlns="http://www.w3.org/2000/svg">
<path fill-rule="evenodd" clip-rule="evenodd" d="M2.75 16.5C2.75 13.9804 3.75089 11.5641 5.53249 9.78249C7.31408 8.00089 9.73044 7 12.25 7C14.7696 7 17.1859 8.00089 18.9675 9.78249C20.7491 11.5641 21.75 13.9804 21.75 16.5C21.75 16.7652 21.6446 17.0196 21.4571 17.2071C21.2696 17.3946 21.0152 17.5 20.75 17.5H3.75C3.48478 17.5 3.23043 17.3946 3.04289 17.2071C2.85536 17.0196 2.75 16.7652 2.75 16.5ZM11.2 14.4L14.2 10.4C14.3591 10.1878 14.596 10.0476 14.8586 10.0101C14.9886 9.99148 15.121 9.99869 15.2482 10.0313C15.3754 10.0639 15.4949 10.1212 15.6 10.2C15.7051 10.2788 15.7936 10.3775 15.8605 10.4905C15.9274 10.6035 15.9714 10.7286 15.9899 10.8586C16.0085 10.9886 16.0013 11.121 15.9687 11.2482C15.9361 11.3754 15.8788 11.4949 15.8 11.6L12.8 15.6C12.6409 15.8122 12.404 15.9524 12.1414 15.9899C11.8789 16.0275 11.6122 15.9591 11.4 15.8C11.1878 15.6409 11.0476 15.404 11.0101 15.1414C10.9725 14.8789 11.0409 14.6122 11.2 14.4Z" fill="currentColor"/>
</svg>
