<svg width="24" height="24" viewBox="0 0 24 24" fill="none" xmlns="http://www.w3.org/2000/svg">
<path d="M3 5H19.5" stroke="currentColor" stroke-width="3" stroke-linecap="round" stroke-linejoin="round"/>
<path d="M3 10.75H13.5" stroke="currentColor" stroke-width="3" stroke-linecap="round" stroke-linejoin="round"/>
<path d="M3 16.5H10.25" stroke="currentColor" stroke-width="3" stroke-linecap="round" stroke-linejoin="round"/>
<path d="M18 17C18 18.1046 17.1046 19 16 19C14.8954 19 14 18.1046 14 17C14 15.8954 14.8954 15 16 15C17.1046 15 18 15.8954 18 17Z" fill="currentColor"/>
<path d="M18 17C18 18.1046 17.1046 19 16 19C14.8954 19 14 18.1046 14 17C14 15.8954 14.8954 15 16 15C17.1046 15 18 15.8954 18 17ZM18 17C18 15.0474 18 12.2013 18 11.6016C18 11.0018 18 11.0018 19 11.0016C19.1406 10.9981 20 11.0016 20 11.0016" stroke="currentColor" stroke-width="3" stroke-linecap="round"/>
</svg>
