<svg width="24" height="24" viewBox="0 0 24 24" fill="none" xmlns="http://www.w3.org/2000/svg">
<path d="M11 19C15.4183 19 19 15.4183 19 11C19 6.58172 15.4183 3 11 3C6.58172 3 3 6.58172 3 11C3 15.4183 6.58172 19 11 19Z" stroke="currentColor" stroke-width="2.5"/>
<path d="M11 16C13.7614 16 16 13.7614 16 11C16 8.23858 13.7614 6 11 6C8.23858 6 6 8.23858 6 11C6 13.7614 8.23858 16 11 16Z" fill="currentColor"/>
<path d="M20.1161 21.8838C20.3506 22.1182 20.6685 22.2499 21 22.2499C21.3315 22.2499 21.6495 22.1182 21.8839 21.8838C22.1183 21.6494 22.25 21.3314 22.25 20.9999C22.25 20.6684 22.1183 20.3504 21.8839 20.116L17.7514 15.9835C17.6789 15.911 17.6064 15.8385 17.5339 15.766C17.2995 15.5316 16.9815 15.3999 16.65 15.3999C16.3185 15.3999 16.0006 15.5316 15.7661 15.766C15.5317 16.0004 15.4 16.3184 15.4 16.6499C15.4 16.9814 15.5317 17.2994 15.7661 17.5338L20.1161 21.8838Z" fill="currentColor"/>
</svg>