<svg width="24" height="24" viewBox="0 0 24 24" fill="none" xmlns="http://www.w3.org/2000/svg">
<path fill-rule="evenodd" clip-rule="evenodd" d="M19.8035 11.7777C19.8035 11.5222 19.7925 11.2777 19.7702 11.0222L21.8369 9.45553C22.2814 9.1222 22.4035 8.49998 22.1258 8.0111L20.0481 4.42221C19.7702 3.93331 19.1702 3.73333 18.6591 3.95554L16.2702 4.96666C15.8592 4.67777 15.4258 4.42221 14.9702 4.2111L14.6481 1.64444C14.5814 1.08888 14.1036 0.666656 13.5481 0.666656H9.40364C8.83697 0.666656 8.3592 1.08888 8.29253 1.64444L7.9703 4.2111C7.51475 4.42221 7.08141 4.67777 6.67031 4.96666L4.28142 3.95554C3.77032 3.73333 3.17032 3.93331 2.89254 4.42221L0.814765 8.02221C0.536987 8.51109 0.65921 9.1222 1.10365 9.46665L3.17032 11.0333C3.14809 11.2778 3.13698 11.5222 3.13698 11.7777C3.13698 12.0333 3.14809 12.2777 3.17032 12.5333L1.10365 14.1C0.65921 14.4333 0.536987 15.0556 0.814765 15.5444L2.89254 19.1333C3.17032 19.6222 3.77032 19.8222 4.28142 19.5999L6.67031 18.5889C7.08141 18.8777 7.51475 19.1333 7.9703 19.3443L8.29253 21.911C8.3592 22.4666 8.83697 22.8889 9.39253 22.8889H13.5369C14.0925 22.8889 14.5702 22.4666 14.6369 21.911L14.9592 19.3443C15.4148 19.1333 15.8481 18.8777 16.2592 18.5889L18.6481 19.5999C19.1591 19.8222 19.7591 19.6222 20.0369 19.1333L22.1147 15.5444C22.3925 15.0556 22.2702 14.4444 21.8258 14.1L19.7591 12.5333C19.7925 12.2777 19.8035 12.0333 19.8035 11.7777ZM11.3333 16C13.5425 16 15.3333 14.2116 15.3333 12.0055C15.3333 9.79942 13.5425 8.01104 11.3333 8.01104C9.12417 8.01104 7.33331 9.79942 7.33331 12.0055C7.33331 14.2116 9.12417 16 11.3333 16Z" fill="currentColor" stroke="currentColor" stroke-width="1.33333" stroke-linecap="round" stroke-linejoin="round"/>
</svg>
