<svg width="24" height="24" viewBox="0 0 24 24" fill="none" xmlns="http://www.w3.org/2000/svg">
<g transform="scale(1.33333)">
<path fill-rule="evenodd" clip-rule="evenodd" d="M14.8527 8.83334C14.8527 8.64168 14.8444 8.45834 14.8277 8.26668L16.3777 7.09167C16.7111 6.84167 16.8027 6.37501 16.5944 6.00835L15.0361 3.31667C14.8277 2.95 14.3777 2.80001 13.9944 2.96667L12.2027 3.72501C11.8944 3.50834 11.5694 3.31667 11.2277 3.15834L10.9861 1.23334C10.9361 0.816671 10.5777 0.5 10.1611 0.5H7.05275C6.62775 0.5 6.26942 0.816671 6.21942 1.23334L5.97775 3.15834C5.63608 3.31667 5.31108 3.50834 5.00275 3.72501L3.21108 2.96667C2.82775 2.80001 2.37775 2.95 2.16942 3.31667L0.611082 6.01668C0.402748 6.38334 0.494415 6.84167 0.827749 7.10001L2.37775 8.27501C2.36108 8.45834 2.35275 8.64168 2.35275 8.83334C2.35275 9.02501 2.36108 9.20834 2.37775 9.40001L0.827749 10.575C0.494415 10.825 0.402748 11.2917 0.611082 11.6583L2.16942 14.35C2.37775 14.7167 2.82775 14.8667 3.21108 14.7L5.00275 13.9417C5.31108 14.1583 5.63608 14.35 5.97775 14.5083L6.21942 16.4333C6.26942 16.85 6.62775 17.1667 7.04442 17.1667H10.1527C10.5694 17.1667 10.9277 16.85 10.9777 16.4333L11.2194 14.5083C11.5611 14.35 11.8861 14.1583 12.1944 13.9417L13.9861 14.7C14.3694 14.8667 14.8194 14.7167 15.0277 14.35L16.5861 11.6583C16.7944 11.2917 16.7027 10.8333 16.3694 10.575L14.8194 9.40001C14.8444 9.20834 14.8527 9.02501 14.8527 8.83334ZM8.5 12C10.1569 12 11.5 10.6587 11.5 9.00415C11.5 7.34959 10.1569 6.0083 8.5 6.0083C6.84315 6.0083 5.5 7.34959 5.5 9.00415C5.5 10.6587 6.84315 12 8.5 12Z" fill="black" stroke="black" stroke-linecap="round" stroke-linejoin="round"/>
</g>
</svg>
