<svg width="24" height="24" viewBox="0 0 24 24" fill="none" xmlns="http://www.w3.org/2000/svg">
<path fill-rule="evenodd" clip-rule="evenodd" d="M10.58 2H12.88C13.31 2 13.68 2.3 13.78 2.72L14.15 4.39C14.2 4.61 14.35 4.79 14.56 4.88C14.76 4.96 14.99 4.95 15.18 4.84L16.64 4.02C17.02 3.81 17.5 3.87 17.81 4.18L19.28 5.65C19.59 5.96 19.65 6.44 19.44 6.82L18.62 8.28C18.51 8.47 18.5 8.7 18.58 8.9C18.67 9.11 18.85 9.26 19.07 9.31L20.74 9.68C21.16 9.78 21.46 10.15 21.46 10.58V12.88C21.46 13.31 21.16 13.68 20.74 13.78L19.07 14.15C18.85 14.2 18.67 14.35 18.58 14.56C18.5 14.76 18.51 14.99 18.62 15.18L19.44 16.64C19.65 17.02 19.59 17.5 19.28 17.81L17.81 19.28C17.5 19.59 17.02 19.65 16.64 19.44L15.18 18.62C14.99 18.51 14.76 18.5 14.56 18.58C14.35 18.67 14.2 18.85 14.15 19.07L13.78 20.74C13.68 21.16 13.31 21.46 12.88 21.46H10.58C10.15 21.46 9.78 21.16 9.68 20.74L9.31 19.07C9.26 18.85 9.11 18.67 8.9 18.58C8.7 18.5 8.47 18.51 8.28 18.62L6.82 19.44C6.44 19.65 5.96 19.59 5.65 19.28L4.18 17.81C3.87 17.5 3.81 17.02 4.02 16.64L4.84 15.18C4.95 14.99 4.96 14.76 4.88 14.56C4.79 14.35 4.61 14.2 4.39 14.15L2.72 13.78C2.3 13.68 2 13.31 2 12.88V10.58C2 10.15 2.3 9.78 2.72 9.68L4.39 9.31C4.61 9.26 4.79 9.11 4.88 8.9C4.96 8.7 4.95 8.47 4.84 8.28L4.02 6.82C3.81 6.44 3.87 5.96 4.18 5.65L5.65 4.18C5.96 3.87 6.44 3.81 6.82 4.02L8.28 4.84C8.47 4.95 8.7 4.96 8.9 4.88C9.11 4.79 9.26 4.61 9.31 4.39L9.68 2.72C9.78 2.3 10.15 2 10.58 2ZM7.15317 12C7.01522 9.33069 9.12006 7.09113 11.7398 7.00281C14.4446 6.91163 16.7822 9.24394 16.64 12C16.5047 14.6219 14.3129 16.584 11.7398 16.4975C9.25625 16.4139 7.28394 14.5305 7.15317 12Z" fill="black" stroke="black" stroke-width="2.5" stroke-linejoin="round"/>
</svg>
