<svg width="24" height="24" viewBox="0 0 24 24" fill="none" xmlns="http://www.w3.org/2000/svg">
<path d="M12.5501 14.9876C11.7212 16.7651 9.63831 17.5481 7.89775 16.7365C6.15719 15.9248 5.4181 13.8259 6.24695 12.0484C7.0758 10.271 9.15872 9.48799 10.8993 10.2996C12.6398 11.1113 13.3789 13.2102 12.5501 14.9876Z" fill="currentColor"/>
<path d="M12.5501 14.9876C11.7212 16.7651 9.63831 17.5481 7.89775 16.7365C6.15719 15.9248 5.4181 13.8259 6.24695 12.0484C7.0758 10.271 9.15872 9.48799 10.8993 10.2996C12.6398 11.1113 13.3789 13.2102 12.5501 14.9876ZM12.5501 14.9876C14.0153 11.8455 15.4017 8.87229 15.8518 7.90714C16.3018 6.94198 16.3018 6.94198 17.8778 7.67642C18.102 7.77411 18.6655 8.04418 18.6655 8.04418" stroke="currentColor" stroke-width="3" stroke-linecap="round"/>
</svg>
