<svg width="24" height="24" viewBox="0 0 24 24" fill="none" xmlns="http://www.w3.org/2000/svg">
<path d="M13.6771 16.8435C12.4819 19.4066 9.47846 20.5355 6.96868 19.3652C4.45889 18.1949 3.39317 15.1684 4.58832 12.6054C5.78348 10.0424 8.78693 8.91336 11.2967 10.0837C13.8065 11.254 14.8722 14.2805 13.6771 16.8435Z" fill="currentColor"/>
<path d="M13.6771 16.8435C12.4819 19.4066 9.47846 20.5355 6.96868 19.3652C4.45889 18.1949 3.39317 15.1684 4.58832 12.6054C5.78348 10.0424 8.78693 8.91336 11.2967 10.0837C13.8065 11.254 14.8722 14.2805 13.6771 16.8435ZM13.6771 16.8435C15.7898 12.3127 17.789 8.02556 18.4379 6.63386C19.0869 5.24217 19.0869 5.24217 21.3593 6.30118C21.6827 6.44204 22.4952 6.83147 22.4952 6.83147" stroke="currentColor" stroke-width="3" stroke-linecap="round"/>
</svg>
