<svg width="24" height="24" viewBox="0 0 24 24" fill="none" xmlns="http://www.w3.org/2000/svg">
<path d="M19.5004 18.0586C19.5002 18.1251 19.4616 18.3023 19.1323 18.5674C18.8087 18.8277 18.2939 19.0951 17.5922 19.334C16.1961 19.8092 14.2188 20.1162 12.0004 20.1162C9.78207 20.1162 7.80481 19.8091 6.40862 19.334C5.707 19.0952 5.19216 18.8277 4.86858 18.5674C4.53906 18.3022 4.50061 18.1251 4.50042 18.0586V13.8135C4.91574 14.0549 5.39866 14.2661 5.92522 14.4453C7.51487 14.9863 9.66293 15.3086 12.0004 15.3086C14.3379 15.3086 16.486 14.9864 18.0756 14.4453C18.6022 14.2661 19.0851 14.0549 19.5004 13.8135V18.0586Z" fill="currentColor"/>
<path d="M19.5004 11.75C19.5004 11.8162 19.4621 11.9933 19.1323 12.2588C18.8087 12.5191 18.2939 12.7865 17.5922 13.0254C16.1961 13.5006 14.2189 13.8086 12.0004 13.8086C9.782 13.8086 7.80482 13.5006 6.40862 13.0254C5.70699 12.7866 5.19216 12.5191 4.86858 12.2588C4.53858 11.9932 4.50045 11.8162 4.50042 11.75V7.50586C4.9157 7.74719 5.39875 7.95849 5.92522 8.1377C7.51486 8.6787 9.66299 9 12.0004 9C14.3379 8.99996 16.486 8.67875 18.0756 8.1377C18.6021 7.95846 19.0852 7.74723 19.5004 7.50586V11.75Z" fill="currentColor"/>
<path d="M12.0004 3.38379C14.2188 3.38383 16.1961 3.69083 17.5922 4.16602C18.2939 4.40488 18.8088 4.67326 19.1323 4.93359C19.462 5.19912 19.5004 5.3763 19.5004 5.44238C19.5002 5.50887 19.4611 5.68534 19.1323 5.9502C18.8087 6.21053 18.2939 6.4789 17.5922 6.71777C16.1961 7.19297 14.2188 7.49996 12.0004 7.5C9.78208 7.5 7.80481 7.19292 6.40862 6.71777C5.70699 6.47895 5.19216 6.2105 4.86858 5.9502C4.53952 5.68525 4.50062 5.50889 4.50042 5.44238C4.50042 5.37627 4.53862 5.19925 4.86858 4.93359C5.19215 4.67327 5.70694 4.40486 6.40862 4.16602C7.80481 3.69087 9.78207 3.38379 12.0004 3.38379Z" fill="currentColor"/>
</svg>
