<svg width="24" height="24" viewBox="0 0 24 24" fill="none" xmlns="http://www.w3.org/2000/svg">
<path d="M21.75 12C21.75 11.1716 21.0784 10.5 20.25 10.5C19.4216 10.5 18.75 11.1716 18.75 12H20.25H21.75ZM17.8551 8.63856C18.2686 9.35646 19.1857 9.60329 19.9036 9.18987C20.6215 8.77645 20.8683 7.85934 20.4549 7.14144L19.155 7.89L17.8551 8.63856ZM21.25 3.75C21.25 2.92157 20.5784 2.25 19.75 2.25C18.9216 2.25 18.25 2.92157 18.25 3.75H19.75H21.25ZM19.75 8.25V9.75C20.5784 9.75 21.25 9.07843 21.25 8.25H19.75ZM15.25 6.75C14.4216 6.75 13.75 7.42157 13.75 8.25C13.75 9.07843 14.4216 9.75 15.25 9.75V8.25V6.75ZM20.25 12H18.75C18.75 15.7279 15.7279 18.75 12 18.75V20.25V21.75C17.3847 21.75 21.75 17.3847 21.75 12H20.25ZM12 20.25V18.75C8.27208 18.75 5.25 15.7279 5.25 12H3.75H2.25C2.25 17.3847 6.61522 21.75 12 21.75V20.25ZM3.75 12H5.25C5.25 8.27208 8.27208 5.25 12 5.25V3.75V2.25C6.61522 2.25 2.25 6.61522 2.25 12H3.75ZM12 3.75V5.25C14.5016 5.25 16.6868 6.60971 17.8551 8.63856L19.155 7.89L20.4549 7.14144C18.7732 4.22129 15.6184 2.25 12 2.25V3.75ZM19.75 3.75H18.25V8.25H19.75H21.25V3.75H19.75ZM19.75 8.25V6.75H15.25V8.25V9.75H19.75V8.25Z" fill="currentColor"/>
</svg>
